<?xml version="1.0" encoding="UTF-8" standalone="no"?>
<!-- Created with Inkscape (http://www.inkscape.org/) -->

<svg
   xmlns:dc="http://purl.org/dc/elements/1.1/"
   xmlns:cc="http://creativecommons.org/ns#"
   xmlns:rdf="http://www.w3.org/1999/02/22-rdf-syntax-ns#"
   xmlns:svg="http://www.w3.org/2000/svg"
   xmlns="http://www.w3.org/2000/svg"
   xmlns:xlink="http://www.w3.org/1999/xlink"
   xmlns:sodipodi="http://sodipodi.sourceforge.net/DTD/sodipodi-0.dtd"
   xmlns:inkscape="http://www.inkscape.org/namespaces/inkscape"
   width="600"
   height="400"
   id="svg2"
   version="1.1"
   inkscape:version="0.48.4 r9939"
   sodipodi:docname="ref1.svg">
  <defs
     id="defs4">
    <linearGradient
       inkscape:collect="always"
       id="linearGradient3832">
      <stop
         style="stop-color:#ffffff;stop-opacity:1;"
         offset="0"
         id="stop3834" />
      <stop
         style="stop-color:#ffffff;stop-opacity:0;"
         offset="1"
         id="stop3836" />
    </linearGradient>
    <linearGradient
       inkscape:collect="always"
       xlink:href="#linearGradient3832"
       id="linearGradient3838"
       x1="-476.79199"
       y1="-52.043262"
       x2="530.33008"
       y2="120.69282"
       gradientUnits="userSpaceOnUse" />
  </defs>
  <sodipodi:namedview
     id="base"
     pagecolor="#ffffff"
     bordercolor="#666666"
     borderopacity="1.0"
     inkscape:pageopacity="0.0"
     inkscape:pageshadow="2"
     inkscape:zoom="0.98994949"
     inkscape:cx="199.71156"
     inkscape:cy="358.3756"
     inkscape:document-units="px"
     inkscape:current-layer="layer1"
     showgrid="false"
     inkscape:window-width="1855"
     inkscape:window-height="1056"
     inkscape:window-x="65"
     inkscape:window-y="24"
     inkscape:window-maximized="1" />
  <metadata
     id="metadata7">
    <rdf:RDF>
      <cc:Work
         rdf:about="">
        <dc:format>image/svg+xml</dc:format>
        <dc:type
           rdf:resource="http://purl.org/dc/dcmitype/StillImage" />
        <dc:title></dc:title>
      </cc:Work>
    </rdf:RDF>
  </metadata>
  <g
     inkscape:label="Capa 1"
     inkscape:groupmode="layer"
     id="layer1"
     transform="translate(0,-652.36218)">
    <image
       y="92.490692"
       x="-103.73283"
       id="image2993"
       xlink:href="file:///home/jrobledo/Im%C3%A1genes/ref.jpg"
       height="532"
       width="666.28571" />
    <path
       style="fill:#2b7497;fill-opacity:1;fill-rule:nonzero;stroke:none"
       d="m 300.49195,709.92468 c -123.55743,0 -223.7107,55.90688 -223.7107,124.89314 0,68.98626 100.15327,124.92659 223.7107,124.92659 25.99148,0 50.95392,-2.47542 74.16033,-7.02586 63.63611,63.63435 118.8033,45.78911 155.91958,46.27035 -35.10367,-12.465 -66.09479,-29.43182 -80.62414,-71.22891 45.58581,-22.86691 74.25493,-56.03309 74.25493,-92.94217 0,-68.98626 -100.15327,-124.89314 -223.7107,-124.89314 z"
       id="path2996"
       inkscape:connector-curvature="0" />
    <path
       sodipodi:type="inkscape:offset"
       inkscape:radius="-18.706533"
       inkscape:original="M 300.5 709.9375 C 176.94257 709.9375 76.78125 765.82624 76.78125 834.8125 C 76.78125 903.79876 176.94257 959.75 300.5 959.75 C 326.49148 959.75 351.44984 957.26919 374.65625 952.71875 C 438.29236 1016.3531 493.44622 998.51876 530.5625 999 C 495.45883 986.535 464.46685 969.54709 449.9375 927.75 C 495.52331 904.88309 524.1875 871.72158 524.1875 834.8125 C 524.1875 765.82624 424.05743 709.9375 300.5 709.9375 z "
       style="fill:#ad132d;fill-opacity:1;fill-rule:evenodd;stroke:none"
       id="path4383"
       d="m 300.5,728.65625 c -58.95821,0 -112.11401,13.56583 -149.0625,34.1875 C 114.48901,783.46542 95.5,809.37272 95.5,834.8125 c 0,25.43978 18.98849,51.36378 55.9375,72 36.94901,20.63622 90.10745,34.21875 149.0625,34.21875 24.80116,0 48.58156,-2.34611 70.5625,-6.65625 a 18.708404,18.708404 0 0 1 16.8125,5.125 c 28.26558,28.2648 52.43264,38.53619 74.75,41.75 -12.73793,-12.10177 -23.41104,-27.40019 -30.34375,-47.34375 a 18.708404,18.708404 0 0 1 9.28125,-22.875 c 41.91618,-21.02614 63.90625,-48.99487 63.90625,-76.21875 0,-25.4426 -18.96611,-51.34776 -55.90625,-71.96875 -36.94014,-20.62099 -90.10429,-34.1875 -149.0625,-34.1875 z" />
    <path
       sodipodi:type="inkscape:offset"
       inkscape:radius="0"
       inkscape:original="M 198.84375 886.21875 C 195.55828 886.81134 193.90621 887.27073 193.90625 887.59375 C 189.48974 887.59389 183.32357 890.58423 175.40625 896.5625 C 168.4045 905.07242 164.67223 911.093 164.1875 914.59375 C 163.54118 920.94927 162.76799 924.1251 161.90625 924.125 C 161.90624 924.82527 162.22004 927.35623 162.8125 931.71875 C 164.32056 934.08866 168.37527 937.54703 175 942.125 L 175.40625 942.125 L 175 939.875 C 173.00718 937.55913 171.80586 935.76147 171.375 934.46875 L 172.25 933.09375 C 171.38823 933.09384 170.96873 932.78005 170.96875 932.1875 L 170.96875 928.5625 C 170.96873 928.07786 171.25128 927.79532 171.84375 927.6875 L 171.375 929.9375 L 171.375 932.1875 L 172.25 932.1875 L 172.25 929.4375 C 172.24998 928.95286 172.99192 926.87265 174.5 923.15625 L 174.125 922.25 C 175.36375 921.01134 176.83898 918.47174 178.5625 914.59375 C 186.26438 902.90636 196.79905 897.06263 210.15625 897.0625 L 211.53125 897.0625 C 213.03926 897.06263 214.83692 897.34517 216.9375 897.9375 L 216.9375 898.4375 C 215.91411 898.43763 214.39899 899.59906 212.40625 901.96875 C 212.08304 901.96887 211.90619 901.86317 211.90625 901.59375 C 210.72129 901.59387 207.58535 903.39154 202.46875 907 C 202.4687 908.77748 201.41297 909.65636 199.3125 909.65625 C 197.91211 912.34934 197.03323 913.68761 196.65625 913.6875 L 196.65625 912.8125 C 192.77833 915.93646 189.92494 919.70863 188.09375 924.125 C 186.10092 930.04964 184.72275 933.49937 183.96875 934.46875 L 184.4375 937.625 L 184.4375 938.5 C 184.43747 939.09254 184.15493 939.37509 183.5625 939.375 C 183.83177 940.93701 183.96872 941.85579 183.96875 942.125 L 183.5625 946.59375 C 183.83177 946.59383 183.96872 946.73942 183.96875 947.0625 L 183.5625 947.0625 L 183.96875 953.375 L 183.96875 953.84375 C 174.75876 953.84382 166.94052 956.55162 160.53125 961.9375 L 160.53125 962.8125 C 160.53125 963.2973 161.45002 963.89364 163.28125 964.59375 C 165.92035 964.59381 171.62714 963.25554 180.40625 960.5625 L 180.40625 961.03125 L 183.5625 960.5625 L 185.8125 960.5625 C 188.07457 964.97904 190.32298 968.57436 192.53125 971.375 C 192.53121 971.96751 192.24867 972.2813 191.65625 972.28125 L 192.125 973.15625 L 180.8125 982.21875 C 180.81247 982.81125 181.12627 983.09379 181.71875 983.09375 L 185.8125 980.4375 L 186.21875 980.4375 L 186.21875 981.3125 C 185.8417 981.31254 184.04404 982.50522 180.8125 984.875 L 180.8125 983.96875 L 178.5625 983.96875 L 178.5625 984.875 C 179.80124 984.87504 180.40623 985.33443 180.40625 986.25 C 179.92149 986.5732 179.00271 986.71879 177.65625 986.71875 L 177.65625 987.125 C 177.65623 987.71749 177.97002 988.03129 178.5625 988.03125 L 180.40625 988.03125 L 180.40625 987.625 C 188.48514 981.86208 192.53121 978.41235 192.53125 977.28125 L 193.5 977.28125 L 194.375 977.6875 C 194.37496 978.0107 194.22937 978.1563 193.90625 978.15625 C 193.90621 978.47945 194.0518 978.93884 194.375 979.53125 L 194.375 979.9375 L 192.125 979.53125 L 191.65625 979.53125 L 191.65625 980.4375 L 192.125 981.3125 C 191.80181 981.31254 191.65621 981.4495 191.65625 981.71875 L 191.65625 982.6875 L 193.90625 983.09375 L 194.375 983.09375 C 195.88303 980.40082 197.3895 978.8857 198.84375 978.5625 L 198.84375 977.6875 L 197.53125 977.6875 L 195.28125 979.53125 L 194.78125 979.53125 L 195.6875 978.15625 L 195.6875 976.78125 L 194.78125 976.78125 L 194.78125 976.3125 L 195.28125 976.3125 L 196.15625 976.78125 L 196.15625 975.90625 L 197.0625 975.90625 C 198.89368 977.41436 199.94941 978.1563 200.21875 978.15625 C 199.41081 979.44892 195.96108 982.30231 189.875 986.71875 L 189.875 985.34375 C 190.19812 985.34379 190.65751 985.1982 191.25 984.875 C 191.24996 984.3903 190.92753 984.07651 190.28125 983.96875 L 189.875 983.96875 C 189.44409 983.96879 188.9847 984.60502 188.5 985.84375 C 188.49997 986.16695 188.64556 986.58644 188.96875 987.125 L 188.96875 987.625 C 174.64211 997.80447 165.16316 1003.9706 160.53125 1006.125 C 158.64616 1008.818 157.02535 1010.1563 155.625 1010.1562 L 155.625 1011.0625 L 156.96875 1011.0625 L 158.28125 1010.1562 L 158.28125 1011.5312 C 160.11247 1011.5313 161.03124 1011.0719 161.03125 1010.1562 L 158.75 1010.5625 L 158.75 1009.6875 C 159.45017 1009.6875 162.15797 1008.1724 166.84375 1005.1562 C 167.75935 1005.1563 168.21874 1005.4787 168.21875 1006.125 C 168.59575 1006.125 169.65148 1005.6656 171.375 1004.75 L 171.375 1003.8438 L 170.46875 1003.8438 L 169.09375 1004.75 L 168.6875 1004.75 L 168.6875 1004.25 C 173.37326 1001.7186 175.76726 1000.2434 175.875 999.8125 C 176.46743 999.81252 176.78123 1000.1263 176.78125 1000.7188 C 176.0272 1000.7188 174.37513 1001.4607 171.84375 1002.9688 L 171.84375 1003.8438 C 180.29967 999.26572 185.54706 995.80735 187.59375 993.4375 L 186.71875 993.4375 L 190.28125 990.28125 C 193.29734 988.28849 195.41744 986.17703 196.65625 983.96875 C 197.4641 983.96879 199.39872 982.49356 202.46875 979.53125 L 202.9375 979.53125 C 202.93745 980.33919 205.64525 982.2738 211.03125 985.34375 L 211.90625 984.875 C 210.34427 981.64347 208.40966 979.11252 206.09375 977.28125 L 206.09375 976.3125 C 207.65562 975.23536 210.04963 972.98695 213.28125 969.59375 L 213.6875 969.59375 L 213.6875 970.5 L 214.1875 970.5 L 215.0625 970 C 221.0947 976.14003 224.12493 982.02366 224.125 987.625 C 223.80177 992.79554 223.62493 995.78589 223.625 996.59375 L 224.125 999.8125 C 223.80177 1000.8897 223.62493 1002.228 223.625 1003.8438 L 223.625 1007.4062 L 224.125 1008.3125 L 223.625 1008.3125 C 223.62493 1008.6357 223.80177 1009.0951 224.125 1009.6875 L 223.625 1010.5625 C 224.54054 1015.8407 224.99993 1018.9767 225 1020 C 224.67677 1020 224.53118 1020.3537 224.53125 1021 L 223.625 1020.5 C 223.1402 1020.5 222.85765 1020.7825 222.75 1021.375 C 222.74993 1021.9675 223.03248 1022.2813 223.625 1022.2812 L 225 1021.375 C 224.99993 1021.6982 225.17677 1022.1575 225.5 1022.75 L 223.21875 1024.5312 C 219.07151 1026.2548 216.07252 1028.0524 214.1875 1029.9375 L 214.1875 1030.4375 L 214.65625 1030.4375 L 216.4375 1029.0625 C 217.13761 1029.0625 217.73395 1029.2393 218.21875 1029.5625 L 221.84375 1028.5938 L 221.375 1027.6875 L 220.5 1028.1875 L 220.09375 1028.1875 L 220.5 1027.2812 L 223.21875 1027.6875 C 223.81114 1027.6875 224.12493 1027.405 224.125 1026.8125 L 223.625 1025.9062 C 224.54054 1025.4215 224.99993 1024.9621 225 1024.5312 C 225.48467 1024.5313 226.54039 1026.9651 228.15625 1031.8125 C 230.47213 1039.0297 233.78491 1045.3328 238.09375 1050.7188 C 241.05594 1052.4961 242.53116 1053.6888 242.53125 1054.2812 L 244.40625 1054.2812 C 244.40616 1054.6044 244.22932 1054.75 243.90625 1054.75 L 243.90625 1055.25 C 249.66912 1057.0273 253.89204 1057.9062 256.53125 1057.9062 C 263.96375 1057.9062 269.21979 1056.5679 272.34375 1053.875 L 275.03125 1053.875 C 276.80849 1053.875 279.34809 1052.6424 282.6875 1050.2188 C 283.27983 1050.2187 283.59362 1050.6781 283.59375 1051.5938 L 284.46875 1051.5938 C 284.46862 1051.2706 284.33167 1051.125 284.0625 1051.125 C 284.06237 1049.6169 285.85139 1047.6823 289.40625 1045.3125 C 291.18348 1042.6195 292.24785 1041.25 292.625 1041.25 C 292.62486 1039.6881 292.93866 1037.8904 293.53125 1035.8438 C 293.20796 1033.6894 293.03111 1032.488 293.03125 1032.2188 L 293.53125 1031.3125 C 293.53113 1021.1473 287.9542 1013.508 276.875 1008.375 C 278.52787 1008.0665 280.09881 1007.6742 281.5625 1007.0938 C 287.86403 1003.7006 290.99997 1001.4037 291 1000.2188 L 291.75 1000.625 L 292.5625 1000.2188 L 292.15625 999.5 C 291.88692 999.50003 291.4847 999.59709 291 999.8125 L 290.625 999.8125 C 290.62497 999.48937 291.73787 998.37647 294 996.4375 L 294 996.03125 L 292.875 996.03125 L 292.875 995.28125 C 294.16759 995.28128 294.94942 994.40239 295.21875 992.625 L 294.40625 992.625 L 293.6875 993.03125 L 293.6875 992.3125 L 294 992.3125 C 296.2531 990.47947 298.09469 988.71641 299.96875 986.9375 C 298.30444 993.21897 296.47906 1000.5013 294.96875 1005.7188 C 295.66893 1007.173 296.77319 1007.9063 298.28125 1007.9062 L 299.15625 1007.75 C 299.19338 1007.4367 299.36016 1007.205 299.75 1007.1562 L 299.75 1007.6562 C 300.98877 1008.1949 301.69081 1008.4688 301.90625 1008.4688 C 302.4987 1008.4688 302.8125 1008.1949 302.8125 1007.6562 L 303.375 1007.6562 C 303.375 1008.5719 303.92281 1009.0313 305 1009.0312 C 305.80789 1005.315 306.63824 1002.6956 307.5 1001.1875 L 312.03125 983.09375 L 311.4375 983.09375 C 310.95276 985.67904 310.52462 986.96879 310.09375 986.96875 C 310.79391 983.84494 311.12499 981.91033 311.125 981.15625 C 310.96341 981.15629 310.87499 981.05923 310.875 980.84375 C 311.7906 979.38959 312.24999 978.28533 312.25 977.53125 L 312.59375 977.53125 L 312.59375 979.125 L 313.15625 979.125 L 314.75 972.4375 L 314.75 971.9375 L 314.1875 971.9375 C 314.18749 972.63773 314.002 973.00005 313.625 973 C 314.16358 970.09164 314.75128 967.97154 315.34375 966.625 L 315.65625 966.625 L 315.65625 966.84375 L 314.53125 971.375 L 314.75 971.375 C 315.127 971.37505 315.98861 968.8441 317.28125 963.78125 C 319.59719 963.88903 321.29779 964.38831 322.375 965.25 L 323.71875 965.25 C 324.09574 965.25006 324.31248 965.06458 324.3125 964.6875 C 327.43633 964.47212 328.96872 964.06991 328.96875 963.53125 L 330.4375 963.78125 C 330.97607 963.61973 331.24997 963.43425 331.25 963.21875 C 333.67365 963.21881 336.10754 961.74358 338.53125 958.78125 C 340.03928 957.97342 340.78121 956.22429 340.78125 953.53125 L 340.46875 952.0625 C 340.68415 952.06257 340.78121 952.0054 340.78125 951.84375 C 340.56577 951.46681 340.46871 951.15301 340.46875 950.9375 C 338.74521 950.93757 337.64095 951.43685 337.15625 952.40625 C 333.92465 955.47631 329.51625 957.59641 323.96875 958.78125 L 323.96875 958.53125 L 322.03125 958.78125 L 320.34375 958.78125 L 319.53125 959.34375 L 319.28125 959.34375 L 319.28125 958.53125 L 320.09375 954.5625 C 321.76337 950.1461 322.59373 947.01016 322.59375 945.125 L 322.59375 944.8125 L 322.03125 944.8125 C 322.03123 945.29731 321.66026 946.49864 320.90625 948.4375 L 320.65625 948.4375 L 320.65625 948.1875 C 320.65623 948.07986 320.84172 947.43499 321.21875 946.25 C 321.21873 945.92692 321.03325 945.74144 320.65625 945.6875 C 320.65623 945.526 320.74465 944.96955 320.90625 944 L 321.21875 944 L 321.21875 944.5625 L 321.78125 944.5625 C 322.4814 942.08505 322.84373 940.66699 322.84375 940.34375 L 322.375 940.34375 L 322.59375 939.78125 C 323.34776 939.78133 324.12095 938.30611 324.875 935.34375 L 324.3125 934.53125 L 324.53125 933.96875 L 325.09375 934.21875 C 325.47074 934.21884 325.68748 934.03336 325.6875 933.65625 L 325.6875 932.53125 L 324.875 933.09375 C 324.9827 932.17823 325.2566 931.71884 325.6875 931.71875 L 325.6875 932.53125 L 325.90625 932.53125 L 333.1875 915.8125 L 333.75 915.8125 C 328.90262 926.36906 326.46873 932.12437 326.46875 933.09375 L 326.46875 933.40625 C 326.56878 933.40631 328.44217 929.34977 329.78125 926.5 L 329.78125 925.75 C 329.78122 925.38206 330.02687 925.18518 330.4375 925.125 L 330.4375 925.09375 C 331.02071 923.83675 330.90635 924.20288 331.65625 922.5625 C 331.61831 922.91352 331.48259 923.15634 331.09375 923.15625 L 330.75 923.15625 C 330.74997 922.77934 330.97535 922.55396 331.40625 922.5 L 331.6875 922.5 C 331.76251 922.33587 331.73584 922.41792 331.8125 922.25 L 337.375 911.90625 L 337.15625 911.34375 C 339.20287 907.78914 340.4042 906.03137 340.78125 906.03125 C 340.78121 904.95418 341.69999 903.66444 343.53125 902.15625 C 345.73945 899.51726 348.54431 897.18043 351.9375 895.1875 L 352.15625 895.1875 C 352.31981 895.39349 352.28961 895.31718 352.4375 895.5 C 353.79263 894.47486 354.68746 893.4628 354.6875 892.4375 L 356.28125 892.4375 L 356.28125 893.09375 L 353 896.125 C 353.68654 896.92892 354.54472 897.93758 354.6875 897.9375 C 354.68745 898.15306 354.59903 898.42697 354.4375 898.75 C 354.97604 901.06608 355.24995 902.76668 355.25 903.84375 L 355.8125 903.84375 L 355.8125 902.71875 L 356.375 902.71875 C 356.37495 903.31133 356.46337 903.77071 356.625 904.09375 L 356.375 904.65625 C 356.37495 905.19496 356.56043 905.83984 356.9375 906.59375 C 357.36832 905.83984 357.92477 905.46887 358.625 905.46875 L 358.625 905.21875 C 358.62494 904.84185 358.25398 904.65637 357.5 904.65625 L 357.5 904.09375 L 357.75 904.09375 L 358.3125 904.40625 L 358.3125 904.09375 L 358.0625 903.53125 L 358.625 903.28125 C 358.62494 902.90436 358.43946 902.13117 358.0625 901 L 357.5 901.34375 C 357.49994 901.72089 357.58837 902.05197 357.75 902.375 L 357.75 902.71875 L 357.5 902.71875 C 357.49994 902.39572 357.31446 902.02475 356.9375 901.59375 L 356.9375 900.21875 L 358.0625 900.21875 C 358.06244 899.84186 357.87696 899.19699 357.5 898.28125 L 358.3125 898.28125 C 358.31244 898.60453 358.49793 899.2494 358.875 900.21875 C 358.71337 900.21887 358.62494 900.27605 358.625 900.4375 C 359.10968 901.73025 359.472 902.37512 359.6875 902.375 C 359.68744 902.75214 359.5106 902.93762 359.1875 902.9375 C 359.18744 903.3685 359.27586 903.77071 359.4375 904.09375 C 359.43744 904.30931 359.34902 904.58321 359.1875 904.90625 C 359.18744 905.28339 359.36429 905.9369 359.6875 906.90625 C 360.06446 906.90637 360.24994 906.5354 360.25 905.78125 L 360.8125 905.78125 C 360.81244 906.5354 360.99792 906.90637 361.375 906.90625 C 361.37494 906.47549 361.50325 906.10453 361.71875 905.78125 L 361.125 904.90625 L 361.125 903.53125 L 361.71875 903.53125 L 361.71875 902.9375 C 361.12624 902.93762 360.81244 902.69497 360.8125 902.15625 C 360.81244 901.67164 360.9095 900.89845 361.125 899.875 L 361.71875 899.875 C 362.6343 900.79074 363.06244 901.7494 363.0625 902.71875 L 363.65625 902.71875 L 363.875 901.34375 C 362.85161 898.6509 362.02125 897.13578 361.375 896.8125 L 361.71875 896.25 L 361.71875 896 C 360.74922 894.76136 360.24994 893.93101 360.25 893.5 C 357.55697 890.7533 354.47821 888.31941 351.03125 886.21875 C 347.79963 886.21889 342.78626 889.02375 336 894.625 C 330.18315 901.89615 325.806 908.97246 322.84375 915.8125 L 322.84375 916.9375 C 323.05917 916.93761 323.34171 916.84919 323.71875 916.6875 L 323.96875 916.6875 L 323.96875 916.9375 C 323.69943 917.4762 323.42553 917.75011 323.15625 917.75 L 322.84375 917.75 L 322.84375 916.9375 C 321.28181 918.87655 319.16171 923.80151 316.46875 931.71875 L 317.28125 932.84375 L 317.03125 934.21875 L 316.21875 934.21875 L 316.46875 932.84375 L 316.46875 932.53125 L 315.90625 932.53125 C 311.81292 944.32656 309.74999 950.30725 309.75 950.46875 C 306.9493 961.51001 305.28859 967.63629 304.75 968.875 C 303.22464 975.02268 301.97877 979.29356 300.5625 984.6875 C 299.59524 985.02846 298.86066 985.16904 297.0625 986.15625 C 297.06246 985.94085 296.82845 985.84379 296.34375 985.84375 C 297.79792 984.7666 298.66816 983.3798 298.9375 981.65625 C 297.42939 980.63296 296.28524 980.09379 295.53125 980.09375 L 287.625 985.84375 C 286.44006 986.27466 285.79519 986.87965 285.6875 987.6875 C 285.41818 987.68754 285.04721 987.59047 284.5625 987.375 C 278.04548 991.62993 273.49149 993.75003 270.90625 993.75 L 267.09375 993.75 C 263.96989 993.75003 262.08381 992.50018 261.4375 989.96875 C 261.4375 988.6223 261.94542 987.75205 262.96875 987.375 L 263.71875 987.375 L 263.3125 988.09375 L 263.3125 988.5 C 263.90495 988.50004 264.41287 988.36308 264.84375 988.09375 C 265.11304 988.09379 265.48401 988.23074 265.96875 988.5 C 268.2847 988.2846 271.55759 986.52683 275.8125 983.1875 C 278.82861 982.11035 280.34373 981.33717 280.34375 980.90625 L 279.625 980.90625 L 279.625 980.5 C 280.9176 979.20742 282.16746 978.23147 283.40625 977.53125 C 286.36849 974.9999 288.39153 973.7188 289.46875 973.71875 C 295.23168 966.34006 298.27055 961.51216 298.59375 959.25 C 297.83968 952.67921 296.96079 948.26218 295.9375 946 L 291.75 941.5 C 291.21137 941.50008 290.71209 941.59715 290.28125 941.8125 C 288.34228 941.32785 287.18949 941.09383 286.8125 941.09375 L 286.5 941.09375 L 286.5 942.21875 C 286.49997 942.70357 286.73399 942.93758 287.21875 942.9375 L 287.21875 943.34375 C 282.15593 944.95961 279.62498 946.10376 279.625 946.75 C 279.62498 947.23481 277.09402 949.36355 272.03125 953.1875 C 270.03844 956.58072 267.13651 959.37694 263.3125 961.53125 C 257.98041 969.07163 254.81322 976.89851 253.84375 985.03125 L 253.84375 987.6875 C 256.37515 996.84364 258.6322 1002.3078 260.625 1004.0312 C 261.18801 1004.4837 261.84634 1004.7583 262.4375 1005.1562 L 258.375 1005.1562 L 256.125 1004.75 C 256.1249 1005.0193 255.94806 1005.1563 255.625 1005.1562 L 255.625 1004.75 C 252.01632 1004.75 250.21866 1005.2094 250.21875 1006.125 L 250.21875 1008.3125 L 250.6875 1009.2812 C 251.27986 1009.2813 251.59365 1008.9588 251.59375 1008.3125 C 252.23997 1008.5818 253.89204 1008.9042 256.53125 1009.2812 C 256.53115 1008.9581 256.95929 1008.7813 257.875 1008.7812 L 259.25 1009.6875 L 261.9375 1009.6875 L 261.9375 1009.2812 C 263.06844 1009.2813 264.12417 1009.4182 265.09375 1009.6875 L 267.34375 1009.2812 C 268.8517 1010.143 269.90743 1010.5625 270.5 1010.5625 L 270.09375 1011.5312 L 270.09375 1011.9375 L 273.25 1011.5312 L 273.65625 1011.5312 C 273.65613 1011.9621 274.11552 1012.5585 275.03125 1013.3125 L 275.03125 1014.1875 L 272.75 1014.6875 L 272.75 1014.1875 L 273.25 1013.3125 C 272.92673 1013.3125 272.74988 1012.9987 272.75 1012.4062 L 270.5 1012.4062 L 268.71875 1011.5312 L 267.8125 1011.9375 L 268.21875 1012.8125 L 268.21875 1013.3125 L 265.96875 1011.9375 L 264.1875 1011.9375 L 261.9375 1012.4062 L 261.9375 1011.5312 L 258.78125 1011.5312 C 258.78115 1012.1237 258.18481 1012.4063 257 1012.4062 L 257 1013.3125 C 258.77726 1013.3125 259.65615 1013.7719 259.65625 1014.6875 C 260.30246 1014.6875 260.62489 1014.3651 260.625 1013.7188 L 264.6875 1014.1875 L 265.5625 1013.7188 C 267.66291 1014.0958 268.71864 1014.7008 268.71875 1015.5625 L 269.1875 1015.5625 L 269.1875 1014.6875 C 270.85703 1014.6875 273.38798 1015.4208 276.78125 1016.875 C 276.78113 1016.6057 276.95797 1016.4688 277.28125 1016.4688 C 277.28113 1016.1456 277.10429 1015.9688 276.78125 1015.9688 C 276.78113 1015.6995 276.95797 1015.5625 277.28125 1015.5625 L 276.375 1014.1875 L 276.375 1013.7188 L 276.78125 1013.7188 C 277.37358 1013.7188 277.68738 1014.3237 277.6875 1015.5625 L 278.15625 1015.5625 L 279.0625 1015.0938 C 279.06238 1015.4169 279.52176 1015.6995 280.4375 1015.9688 L 279.9375 1016.875 L 279.0625 1016.4688 L 278.65625 1016.4688 C 278.00981 1016.4688 277.68738 1016.9281 277.6875 1017.8438 C 275.31756 1016.605 273.66549 1015.9688 272.75 1015.9688 L 272.34375 1015.9688 L 272.34375 1016.875 L 271.875 1016.875 L 269.59375 1016.4688 L 269.59375 1016.875 C 269.59364 1017.5213 270.51241 1017.9807 272.34375 1018.25 L 273.25 1017.8438 L 272.75 1016.875 C 273.66549 1016.875 274.72122 1017.1974 275.90625 1017.8438 L 275.5 1018.7188 C 275.49988 1018.9881 276.09622 1019.4076 277.28125 1020 C 280.78199 1020.9156 284.37732 1023.6633 288.09375 1028.1875 C 281.84592 1035.8355 274.93782 1040.6235 267.34375 1042.5625 L 255.21875 1045.3125 L 245.6875 1043.5312 C 235.77727 1039.2225 230.81242 1031.0818 230.8125 1019.125 C 231.13558 1019.125 231.31242 1018.9881 231.3125 1018.7188 C 230.98927 1018.1802 230.81242 1017.5752 230.8125 1016.875 L 230.8125 1006.125 C 230.81242 1005.0478 230.67547 1003.6697 230.40625 1002 C 230.67547 1001.5691 230.81242 1000.6903 230.8125 999.34375 C 230.81242 986.20207 226.7976 974.61167 218.71875 964.59375 L 220.5 963.3125 L 219.59375 961.9375 L 219.59375 961.4375 L 224.53125 953.84375 L 224.125 952.875 C 227.41036 947.38141 230.08691 940.1994 232.1875 931.3125 L 233.96875 931.3125 L 233.96875 929.9375 C 233.69937 929.93759 233.27988 929.76075 232.6875 929.4375 C 232.68742 928.84514 233.10692 928.5626 233.96875 928.5625 L 233.96875 927.6875 C 233.10692 927.6876 232.68742 927.3738 232.6875 926.78125 C 232.68742 926.08118 232.82438 925.48483 233.09375 925 L 232.6875 924.125 L 233.09375 922.25 C 233.09367 921.92695 232.95672 921.46756 232.6875 920.875 L 233.5625 920.46875 C 233.56242 914.75975 232.82049 910.4225 231.3125 907.40625 C 231.31242 905.73672 235.96348 904.3672 245.28125 903.34375 C 250.55939 903.34387 255.98362 904.25401 261.53125 906.03125 C 267.8327 908.72434 270.96863 912.63346 270.96875 917.75 C 270.96863 918.07326 270.82304 918.53265 270.5 919.125 L 270.96875 920 C 270.96863 928.56376 266.60013 937.30077 257.875 946.1875 L 258.375 947.0625 C 255.62807 947.49345 254.2499 948.08979 254.25 948.84375 C 249.18711 952.07539 246.65616 953.87305 246.65625 954.25 L 245.28125 954.25 C 244.36555 954.57323 243.90616 954.88702 243.90625 955.15625 C 234.37304 959.35736 228.06992 961.43756 225 961.4375 L 225 962.40625 C 225.53852 962.40631 227.19059 962.08388 229.9375 961.4375 L 230.40625 961.4375 L 230.40625 962.40625 L 227.28125 962.8125 L 225.90625 962.8125 L 225.90625 963.71875 L 229.0625 963.71875 L 229.9375 963.3125 C 229.93743 963.90502 230.21997 964.18756 230.8125 964.1875 L 231.78125 964.1875 C 233.23538 964.18756 234.74186 963.72817 236.25 962.8125 L 237.625 962.8125 L 237.625 963.3125 C 237.08632 963.31256 236.31314 963.59511 235.34375 964.1875 L 235.84375 965.09375 C 235.03578 965.09381 232.64178 965.83574 228.65625 967.34375 L 228.65625 968.21875 L 229.53125 968.21875 L 230.40625 967.8125 L 230.40625 968.21875 C 231.91424 968.21881 232.68742 967.93626 232.6875 967.34375 C 236.45758 967.02065 241.24559 965.68238 247.0625 963.3125 L 247.5625 963.3125 L 247.5625 964.1875 C 244.43856 964.88773 241.86771 965.76662 239.875 966.84375 C 232.38845 967.81328 228.65618 969.32839 228.65625 971.375 C 243.03665 968.89752 253.67703 965.16524 260.625 960.15625 C 273.228 950.13846 279.53113 940.20876 279.53125 930.40625 L 279.53125 925.90625 C 279.53113 920.03567 276.53214 912.95936 270.5 904.71875 C 264.68307 899.00977 257.60676 895.2376 249.3125 893.40625 C 249.31241 893.72954 249.2067 893.90638 248.9375 893.90625 L 248.4375 893 C 247.95267 893.00013 247.67013 893.31393 247.5625 893.90625 C 243.03822 893.58322 240.74991 892.98688 240.75 892.125 C 239.24185 892.12513 238.49992 892.54463 238.5 893.40625 L 237.625 893.40625 L 237.625 892.53125 L 234.9375 892.53125 C 234.29111 892.53138 233.96867 892.99077 233.96875 893.90625 L 233.09375 893.90625 C 232.1242 893.90638 228.95702 894.64831 223.625 896.15625 C 218.02355 890.555 212.63056 887.41906 207.40625 886.71875 L 201.09375 886.71875 L 198.84375 886.21875 z M 353 896.125 C 352.7669 895.85205 352.73328 895.86563 352.4375 895.5 C 352.084 895.76742 351.88321 896.0451 351.4375 896.3125 L 351.4375 896.96875 L 352.09375 896.96875 L 353 896.125 z M 331.6875 922.5 C 331.66875 922.54103 331.6749 922.5217 331.65625 922.5625 C 331.66035 922.52458 331.71875 922.54202 331.71875 922.5 L 331.6875 922.5 z M 330.4375 925.125 C 330.12212 925.80461 330.04761 925.93315 329.78125 926.5 L 329.78125 926.71875 L 330.125 926.71875 L 330.4375 925.125 z M 299.75 1007.6562 L 299.15625 1007.75 C 299.15234 1007.783 299.09375 1007.7766 299.09375 1007.8125 L 299.75 1008.125 L 299.75 1007.6562 z M 214.1875 1030.4375 L 213.28125 1030.4375 L 211.03125 1031.8125 L 211.53125 1032.6875 C 212.76996 1032.2566 213.64885 1031.5147 214.1875 1030.4375 z M 187.59375 993.4375 L 188.09375 993.4375 C 188.68617 993.43753 188.96872 993.15499 188.96875 992.5625 L 188.96875 992.15625 C 188.05311 992.58716 187.59372 993.00666 187.59375 993.4375 z M 350.8125 897.28125 C 350.11228 897.3891 349.3391 898.38765 348.53125 900.21875 L 349.1875 900.53125 C 349.83377 899.8312 350.47864 898.73558 351.125 897.28125 L 350.8125 897.28125 z M 236.25 898.84375 L 237.625 898.84375 L 237.625 899.3125 C 237.30176 899.31263 236.84237 899.44958 236.25 899.71875 L 234.9375 899.71875 L 234.9375 899.3125 C 235.26058 899.31263 235.71132 899.16703 236.25 898.84375 z M 239.375 898.84375 L 241.65625 898.84375 L 241.65625 899.3125 C 241.33301 899.31263 240.88226 899.44958 240.34375 899.71875 C 239.80507 899.71887 239.48264 899.43633 239.375 898.84375 z M 239.875 900.59375 C 240.57509 900.59387 241.17143 900.77072 241.65625 901.09375 L 242.53125 900.59375 L 243.03125 900.59375 L 243.03125 901.59375 C 239.47644 901.86317 236.90559 901.96887 235.34375 901.96875 L 234.9375 901.96875 L 235.34375 901.09375 L 237.625 901.59375 C 238.16351 901.59387 238.90545 901.24019 239.875 900.59375 z M 336.90625 900.84375 L 336.90625 901.1875 C 336.90622 901.6185 336.68084 901.81262 336.25 901.8125 L 336.25 901.5 C 336.24997 901.12311 336.47534 900.89773 336.90625 900.84375 z M 346.90625 900.84375 L 346.59375 901.5 C 346.80914 901.931 346.90621 902.25343 346.90625 902.46875 C 346.74463 902.46887 346.22807 903.01668 345.3125 904.09375 L 345.3125 903.125 L 344.96875 903.125 L 344.96875 903.75 C 345.18415 904.12714 345.31246 904.57788 345.3125 905.0625 C 344.9893 905.06262 344.53855 905.80455 344 907.3125 L 343.375 907.3125 L 343.375 907 L 343.6875 906.34375 L 343.6875 906.03125 L 343.375 906.03125 C 343.37496 906.46224 343.14959 906.65637 342.71875 906.65625 L 342.71875 907.3125 L 343.03125 907.96875 C 341.95402 907.96887 341.43746 908.48543 341.4375 909.5625 L 341.4375 909.90625 L 341.75 909.90625 C 341.74996 909.26005 341.97533 908.93762 342.40625 908.9375 L 342.71875 908.9375 L 342.71875 909.5625 C 341.42608 911.28612 340.78121 912.60711 340.78125 913.46875 L 340.78125 914.09375 L 341.09375 914.09375 C 343.35581 909.24651 345.74117 905.15191 348.21875 901.8125 L 348.21875 900.84375 C 347.78783 901.05931 347.46539 901.18762 347.25 901.1875 C 347.24996 900.97219 347.12164 900.84387 346.90625 900.84375 z M 342.40625 901.1875 L 342.71875 901.1875 C 342.39555 902.04937 342.07312 902.46887 341.75 902.46875 L 341.75 901.8125 C 341.74996 901.43561 341.97533 901.24148 342.40625 901.1875 z M 230.40625 902.46875 C 230.40618 902.73817 231.00252 902.87512 232.1875 902.875 L 232.1875 903.34375 L 229.0625 903.84375 L 229.0625 902.875 C 229.38558 902.87512 229.81372 902.73817 230.40625 902.46875 z M 240.34375 902.46875 L 243.5 902.46875 L 243.5 902.875 L 240.34375 902.875 L 240.34375 902.46875 z M 238.09375 902.875 L 239.375 902.875 L 239.375 903.34375 C 238.67474 903.34387 237.05392 903.65767 234.46875 904.25 L 233.5625 904.25 L 233.5625 903.84375 C 234.31645 903.84387 235.83157 903.52144 238.09375 902.875 z M 372.4375 903.4375 L 372.4375 904.71875 L 373.09375 904.71875 C 373.09368 904.50343 372.99662 904.40637 372.78125 904.40625 L 373.09375 903.75 L 373.09375 903.4375 L 372.4375 903.4375 z M 340.125 903.75 L 340.78125 903.75 L 340.125 905.6875 L 339.5 905.6875 C 339.93084 904.77201 340.12496 904.12714 340.125 903.75 z M 333.65625 905.375 L 334.3125 905.375 C 333.45072 906.93704 333.03122 907.90435 333.03125 908.28125 C 330.01509 913.61345 328.49997 916.51537 328.5 917 L 328.1875 917 L 328.1875 916.6875 C 328.18747 916.20287 328.92941 914.59069 330.4375 911.84375 L 330.125 911.1875 C 330.82514 911.07989 331.98658 909.14528 333.65625 905.375 z M 221.375 906.5 L 222.25 906.5 C 222.24993 906.98485 221.37105 907.58119 219.59375 908.28125 L 219.59375 907.40625 C 220.07842 907.40637 220.67476 907.09257 221.375 906.5 z M 215.96875 907 L 216.9375 907 L 216.9375 907.40625 C 216.29113 907.40637 215.96869 907.68891 215.96875 908.28125 L 215.5625 908.28125 L 215.5625 907.875 L 215.96875 907 z M 338.84375 907 L 339.15625 907 C 338.5099 909.04678 337.6709 910.56189 336.59375 911.53125 L 336.59375 911.1875 C 337.29389 909.19481 338.03582 907.80801 338.84375 907 z M 213.6875 908.78125 L 214.1875 908.78125 L 213.6875 909.65625 L 212.40625 909.65625 L 212.40625 909.1875 C 212.72935 909.18762 213.14885 909.05066 213.6875 908.78125 z M 221.84375 908.78125 L 222.25 908.78125 C 222.24993 909.21224 221.68484 909.67163 220.5 910.15625 L 220.5 909.1875 C 220.82309 909.18762 221.25123 909.05066 221.84375 908.78125 z M 222.75 909.65625 L 223.625 910.15625 C 223.62493 910.47952 223.48798 910.89902 223.21875 911.4375 C 223.21868 912.67638 223.35563 913.8777 223.625 915.0625 C 223.62493 928.25817 217.7812 942.37953 206.09375 957.40625 C 203.07757 956.16755 201.5937 955.42562 201.59375 955.15625 C 195.8846 954.56387 193.03121 953.96753 193.03125 953.375 L 193.03125 950.6875 L 193.5 948.4375 C 193.17681 948.43758 193.03121 948.26073 193.03125 947.9375 C 193.35437 947.39898 193.49996 946.83389 193.5 946.1875 L 193.5 943.03125 C 194.63101 941.30783 195.22735 939.79271 195.28125 938.5 C 200.23628 927.08189 207.13574 918.9811 215.96875 914.1875 C 220.49288 911.44078 222.74993 909.92566 222.75 909.65625 z M 207 912.3125 L 207.875 912.3125 L 207.875 913.6875 L 207 913.6875 L 207 912.3125 z M 211.53125 912.3125 L 212.40625 912.3125 C 211.92146 913.22822 211.46207 913.68761 211.03125 913.6875 L 210.15625 913.6875 L 210.15625 912.8125 C 210.47935 912.81261 210.93874 912.63577 211.53125 912.3125 z M 208.78125 913.6875 C 209.37365 914.01077 209.83304 914.18761 210.15625 914.1875 L 210.15625 914.59375 C 209.67146 914.59386 209.07512 914.9163 208.375 915.5625 C 207.83635 915.56261 207.51392 915.24017 207.40625 914.59375 C 208.32181 914.59386 208.7812 914.28006 208.78125 913.6875 z M 213.28125 913.6875 L 213.6875 913.6875 C 213.68744 914.28006 213.4049 914.59386 212.8125 914.59375 L 212.40625 914.59375 C 212.40619 914.10913 212.68874 913.79533 213.28125 913.6875 z M 335.28125 914.4375 L 335.28125 914.75 C 334.6349 915.71958 334.31247 916.46151 334.3125 917 L 334 917 L 334 916.6875 C 334.21541 915.17954 334.6349 914.43761 335.28125 914.4375 z M 327.21875 919.28125 C 324.63347 925.63677 323.34373 928.95819 323.34375 929.28125 L 322.6875 928.96875 C 324.788 923.04431 326.30311 919.81995 327.21875 919.28125 z M 332.375 919.59375 L 333.03125 919.90625 L 332.6875 920.5625 L 332.0625 920.25 L 332.375 919.59375 z M 278.65625 925.40625 L 278.65625 928.5625 L 278.15625 928.5625 C 278.15613 928.13172 277.87358 927.53538 277.28125 926.78125 L 277.28125 925.90625 C 277.60428 925.90635 278.06367 925.72951 278.65625 925.40625 z M 334 925.75 C 333.46137 926.82729 333.01063 927.34385 332.6875 927.34375 L 332.6875 928 L 333.34375 928 C 333.34372 927.67694 333.56909 927.25744 334 926.71875 L 334 925.75 z M 322.03125 929.625 C 322.46211 929.6251 322.68748 929.81922 322.6875 930.25 L 322.6875 930.59375 C 322.68748 931.02472 322.46211 931.21884 322.03125 931.21875 L 322.03125 929.625 z M 332.0625 930.25 C 331.57774 930.25009 331.12699 931.2174 330.75 933.15625 L 330.75 933.5 L 331.09375 933.5 L 332.0625 930.25 z M 321.0625 932.84375 L 321.71875 932.84375 L 321.71875 933.8125 L 321.0625 933.8125 L 321.0625 932.84375 z M 227.28125 933.09375 L 227.6875 933.09375 L 227.6875 933.5625 C 227.09497 933.56259 226.78118 933.87639 226.78125 934.46875 C 226.29644 934.46884 226.0139 934.15504 225.90625 933.5625 C 226.22934 933.56259 226.68872 933.417 227.28125 933.09375 z M 320.09375 934.46875 L 321.0625 934.46875 L 321.0625 934.78125 L 320.75 935.4375 C 320.37297 935.43759 320.14759 935.21222 320.09375 934.78125 L 320.09375 934.46875 z M 272.75 934.875 L 274.53125 935.34375 L 274.125 936.25 C 273.53243 935.98079 273.07304 935.84384 272.75 935.84375 L 272.75 934.875 z M 325.59375 936.0625 L 325.59375 937.03125 C 326.0246 937.03134 326.24998 936.83721 326.25 936.40625 L 326.25 936.0625 L 325.59375 936.0625 z M 325.28125 937.375 C 325.28123 937.69824 325.05585 938.11774 324.625 938.65625 L 324.625 939.625 C 325.00199 939.62508 325.32443 938.98021 325.59375 937.6875 L 325.59375 937.375 L 325.28125 937.375 z M 275.5 937.625 L 275.90625 937.625 L 275.90625 938 C 275.52911 940.1006 274.93277 941.15633 274.125 941.15625 L 274.125 938.96875 C 275.04049 938.96884 275.49988 938.5407 275.5 937.625 z M 319.125 938.65625 L 319.4375 938.65625 L 316.53125 947.375 L 316.21875 947.375 L 315.90625 945.78125 L 315.90625 945.4375 C 316.22939 944.79127 316.55183 944.46883 316.875 944.46875 C 317.19814 942.31445 317.7147 940.92765 318.46875 940.28125 L 318.15625 939.625 C 318.64097 938.97877 318.9634 938.65634 319.125 938.65625 z M 330.125 938.96875 C 329.26322 940.85392 328.07054 944.20659 326.5625 949 L 326.5625 949.3125 C 327.04721 949.20486 328.43402 945.88344 330.75 939.3125 L 330.75 938.96875 L 330.125 938.96875 z M 271.875 940.28125 L 272.34375 940.28125 C 271.8589 941.5201 271.39951 942.12508 270.96875 942.125 L 270.96875 941.65625 L 271.875 940.28125 z M 323.96875 940.28125 L 323.96875 941.25 C 324.3996 941.25008 324.62498 941.02471 324.625 940.59375 L 324.625 940.28125 L 323.96875 940.28125 z M 272.34375 943.4375 L 272.75 943.4375 C 272.04971 945.2688 271.45337 946.18758 270.96875 946.1875 L 270.5 946.1875 L 270.5 945.6875 C 271.30778 944.23337 271.91276 943.49144 272.34375 943.4375 z M 222.75 943.90625 C 223.34239 943.90633 223.62493 944.22013 223.625 944.8125 L 223.625 945.28125 L 221.84375 945.28125 L 222.75 943.90625 z M 226.78125 943.90625 L 226.78125 945.28125 C 226.13487 945.28133 225.25598 945.73208 224.125 946.59375 L 224.125 945.28125 C 224.50195 945.28133 225.38083 944.82194 226.78125 943.90625 z M 269.1875 943.90625 L 270.09375 943.90625 C 269.50118 944.66036 269.18739 945.2567 269.1875 945.6875 L 267.8125 945.6875 L 267.8125 945.28125 C 268.728 945.28133 269.18739 944.82194 269.1875 943.90625 z M 322.6875 944.15625 L 322.6875 945.4375 L 323 945.4375 L 323 944.15625 L 322.6875 944.15625 z M 270.09375 946.59375 L 270.5 946.59375 L 270.5 947.0625 C 266.19113 952.6101 260.76689 957.39811 254.25 961.4375 C 255.16551 961.43756 255.6249 961.76 255.625 962.40625 L 254.25 962.40625 L 254.25 961.4375 C 253.54973 961.43756 251.61511 962.21075 248.4375 963.71875 L 247.9375 963.71875 C 247.93741 962.96478 248.99314 962.36844 251.09375 961.9375 C 261.6501 956.06688 266.93739 951.84397 266.9375 949.3125 C 269.03791 948.23539 270.09364 947.34786 270.09375 946.59375 z M 223.625 947.0625 L 223.625 949.3125 C 223.30178 949.31258 222.84239 949.44953 222.25 949.71875 C 222.24993 949.44953 222.11298 949.31258 221.84375 949.3125 C 222.65158 947.80451 223.24792 947.06258 223.625 947.0625 z M 219.125 947.5625 C 220.3637 947.99345 220.96868 948.41295 220.96875 948.84375 L 218.71875 948.4375 L 219.125 947.5625 z M 218.71875 950.21875 L 219.125 950.21875 L 219.125 950.6875 C 218.74792 952.14178 218.29717 952.87507 217.8125 952.875 L 218.71875 954.25 C 218.01851 954.25007 217.42217 954.42691 216.9375 954.75 C 216.93744 954.21148 216.615 953.89768 215.96875 953.84375 L 215.5625 953.84375 C 214.96999 955.08259 214.65619 955.85577 214.65625 956.125 L 214.1875 956.125 L 214.1875 955.625 C 214.18744 955.30191 214.33303 954.84252 214.65625 954.25 C 215.8411 953.65762 216.43744 952.77873 216.4375 951.59375 L 217.34375 952 C 218.2593 952.00007 218.71869 951.40373 218.71875 950.21875 z M 222.25 950.21875 C 222.24993 951.02672 220.16973 954.93584 215.96875 961.9375 L 215.5625 961.9375 L 215.5625 961.4375 C 219.3326 954.4897 221.54976 950.75742 222.25 950.21875 z M 315.25 950.28125 L 315.5625 950.28125 C 314.70074 952.75886 314.28124 954.27398 314.28125 954.8125 L 313.96875 954.8125 L 313.625 952.875 C 314.21744 951.25929 314.76525 950.38904 315.25 950.28125 z M 313 954.5 C 313.6463 954.82323 313.96874 955.14566 313.96875 955.46875 L 313.96875 956.125 L 313.625 956.125 L 313.625 957.09375 C 313.19411 957.63241 312.99999 958.14897 313 958.6875 L 312.65625 958.6875 L 312.34375 956.4375 C 312.55918 956.43757 312.88161 956.34051 313.3125 956.125 C 313.31249 955.90963 313.21543 955.58719 313 955.15625 L 313 954.5 z M 287.9375 956.28125 C 288.47606 956.28132 288.74997 956.51533 288.75 957 C 286.27244 960.71637 284.62037 963.01331 283.8125 963.875 C 276.70303 972.16941 272.55125 976.31255 271.3125 976.3125 C 268.83495 979.32868 266.90898 980.98075 265.5625 981.25 C 265.56249 980.71145 265.46543 980.21217 265.25 979.78125 C 266.38104 975.90342 271.16905 969.82567 279.625 961.53125 C 285.01092 958.46133 287.77589 956.71219 287.9375 956.28125 z M 323.34375 956.4375 L 323.34375 957.71875 L 323.65625 957.71875 L 323.65625 956.4375 L 323.34375 956.4375 z M 213.6875 956.5 L 213.6875 957.40625 C 213.09499 957.40632 212.81244 957.68886 212.8125 958.28125 L 212.40625 958.28125 L 212.40625 957.875 C 212.83707 956.95946 213.25657 956.50007 213.6875 956.5 z M 213.6875 958.28125 L 214.1875 958.28125 L 214.1875 958.78125 C 213.86428 959.37377 213.68744 959.83316 213.6875 960.15625 L 211.90625 960.15625 L 211.90625 958.78125 L 212.8125 959.25 L 213.6875 959.25 L 213.6875 958.28125 z M 322.6875 959.03125 L 323 959.03125 L 323 960.3125 L 322.375 960.3125 L 322.6875 959.03125 z M 247.9375 959.25 L 249.8125 959.25 C 249.81241 959.84252 249.52986 960.15631 248.9375 960.15625 C 247.69864 960.15631 247.06241 960.57581 247.0625 961.4375 L 246.65625 961.4375 L 245.6875 961.03125 L 245.28125 961.9375 C 244.74257 961.93756 244.46002 961.62377 244.40625 961.03125 L 244.40625 960.5625 C 245.53721 960.56256 246.69864 960.11182 247.9375 959.25 z M 322.03125 960.625 L 322.6875 960.625 C 322.47204 961.00208 322.37498 961.45283 322.375 961.9375 L 322.03125 961.9375 L 322.03125 960.625 z M 197.0625 961.4375 L 197.53125 961.4375 C 197.53121 961.76072 197.38562 961.93756 197.0625 961.9375 C 197.06246 962.63774 198.40073 963.23408 201.09375 963.71875 C 201.0937 964.31126 200.81116 964.59381 200.21875 964.59375 C 200.21871 964.91697 200.3643 965.09381 200.6875 965.09375 L 200.6875 965.96875 L 200.21875 965.96875 L 200.21875 965.09375 L 199.8125 965.09375 C 198.89685 965.57854 198.43746 966.00668 198.4375 966.4375 L 198.84375 967.34375 C 198.57441 967.34381 198.43746 967.4894 198.4375 967.8125 C 198.1143 967.81256 197.93746 967.66696 197.9375 967.34375 L 197.0625 967.8125 C 194.96194 965.7659 193.90621 963.82264 193.90625 961.9375 C 194.60638 961.93756 195.20272 962.08316 195.6875 962.40625 L 197.0625 961.4375 z M 230.8125 961.4375 L 231.3125 961.4375 C 231.90488 961.43756 232.18742 961.76 232.1875 962.40625 L 232.1875 962.8125 L 231.78125 962.8125 C 231.24258 962.81256 230.92014 962.53002 230.8125 961.9375 L 230.8125 961.4375 z M 243.03125 961.4375 L 243.5 961.4375 L 243.5 961.9375 C 242.26115 961.93756 241.65616 962.22011 241.65625 962.8125 C 241.06371 962.54326 240.61296 962.40631 240.34375 962.40625 L 240.34375 961.9375 L 243.03125 961.4375 z M 322.03125 962.25 L 321.71875 963.875 L 321.0625 963.53125 C 321.38564 962.66956 321.70807 962.25006 322.03125 962.25 z M 206.5 966.4375 L 207.875 966.4375 L 207.875 967.34375 L 207.40625 967.34375 C 206.92146 967.34381 206.60767 967.03001 206.5 966.4375 z M 205.625 967.34375 L 206.09375 967.34375 L 207 967.8125 C 206.08434 968.51273 205.62495 969.10907 205.625 969.59375 L 205.21875 969.59375 L 205.21875 969.125 C 205.488 968.58646 205.62495 967.99012 205.625 967.34375 z M 309.4375 968.0625 C 309.86837 968.27799 310.1908 968.40631 310.40625 968.40625 C 310.40624 968.51403 309.98674 969.80377 309.125 972.28125 L 308.46875 972.28125 C 308.68418 970.71938 309.00662 969.30132 309.4375 968.0625 z M 203.84375 968.21875 C 203.8437 968.91898 203.98065 969.51532 204.25 970 L 204.25 970.96875 L 203.84375 970.96875 L 203.84375 969.59375 L 203.34375 969.59375 L 202.46875 970 L 202.46875 969.59375 C 202.95344 968.67819 203.41283 968.21881 203.84375 968.21875 z M 327.53125 970 C 327.10035 970.05391 326.87498 970.27929 326.875 970.65625 L 328.1875 970.65625 L 328.1875 970 L 327.53125 970 z M 207.40625 970.96875 L 207.875 970.96875 C 206.35486 972.73635 205.90353 973.01761 205.21875 973.625 C 205.23294 972.71902 205.96637 971.82203 207.40625 970.96875 z M 203.34375 971.875 L 203.34375 973.65625 L 205.21875 973.65625 C 204.86683 973.96712 203.97183 975.03127 203.84375 975.03125 L 201.09375 972.75 L 201.09375 972.28125 L 203.34375 971.875 z M 321.71875 973.25 L 321.71875 973.875 L 323.65625 974.21875 L 323.65625 973.5625 L 322.03125 973.25 L 321.71875 973.25 z M 193.5 974.125 L 193.90625 974.125 C 193.90621 975.41768 191.9716 977.06975 188.09375 979.0625 L 187.59375 979.0625 L 187.59375 978.5625 C 190.39441 976.83904 192.36891 975.36382 193.5 974.125 z M 306.1875 983.25 L 306.1875 983.90625 C 306.1875 984.33717 305.99337 984.56254 305.5625 984.5625 L 305.5625 983.90625 C 305.5625 983.52927 305.75662 983.3039 306.1875 983.25 z M 315.5625 984.875 L 315.5625 986.15625 L 315.90625 986.15625 L 315.90625 984.875 L 315.5625 984.875 z M 186.21875 986.25 C 185.78784 986.25004 185.36835 986.84638 184.9375 988.03125 L 185.8125 988.5 L 186.71875 988.5 C 186.71872 987.85372 186.85567 987.25738 187.125 986.71875 L 186.21875 986.25 z M 196.65625 986.25 C 196.11761 986.25004 195.79518 986.53258 195.6875 987.125 L 197.0625 987.125 L 197.0625 986.25 L 196.65625 986.25 z M 296.65625 986.5625 L 296.65625 987.375 C 295.57902 987.37504 294.70014 987.87432 294 988.84375 L 294 987.6875 C 293.99996 987.2028 294.87885 986.83184 296.65625 986.5625 z M 194.375 988.03125 C 193.83637 988.03129 193.55382 988.35372 193.5 989 L 193.5 989.40625 C 194.36171 988.97541 194.78121 988.51602 194.78125 988.03125 L 194.375 988.03125 z M 180.8125 990.28125 C 180.32774 990.28128 180.04519 990.60372 179.9375 991.25 L 180.40625 992.15625 C 180.99868 992.15628 181.31247 991.84249 181.3125 991.25 L 182.1875 991.65625 L 182.6875 991.65625 L 182.6875 991.25 C 182.68747 990.71144 182.36504 990.389 181.71875 990.28125 L 180.8125 990.28125 z M 177.25 993.03125 C 176.71138 993.03128 176.42884 993.31383 176.375 993.90625 L 176.375 994.40625 L 178.5625 993.90625 L 178.5625 993.03125 L 177.25 993.03125 z M 292.875 993.03125 L 293.6875 993.4375 C 293.6336 993.76069 292.98873 994.22872 291.75 994.875 L 291 994.875 L 291 994.5625 C 291.10769 994.02394 291.74392 993.51602 292.875 993.03125 z M 184.9375 993.4375 L 186.21875 993.4375 L 185.8125 994.40625 C 185.27388 994.40628 184.99133 994.08384 184.9375 993.4375 z M 295.53125 994.15625 C 294.77718 994.5333 294.40621 994.90426 294.40625 995.28125 L 294.40625 995.6875 L 294.8125 995.6875 L 295.9375 994.875 L 295.53125 994.15625 z M 172.75 995.6875 C 172.26525 995.68753 171.95145 996.00132 171.84375 996.59375 C 171.84373 997.24009 172.15753 997.56253 172.75 997.5625 L 173.21875 997.5625 C 173.21873 997.23937 173.35568 996.77998 173.625 996.1875 L 173.625 995.6875 L 172.75 995.6875 z M 179.9375 997.0625 L 181.3125 997.0625 L 181.3125 997.5625 C 180.98932 997.56253 180.52993 997.69948 179.9375 997.96875 L 179.9375 997.0625 z M 289.875 997.5625 L 291.40625 997.5625 L 291.40625 997.96875 C 290.81376 997.96878 289.66097 998.57376 287.9375 999.8125 L 287.9375 999.5 C 288.90694 998.2074 289.55181 997.56253 289.875 997.5625 z M 286.8125 999.8125 L 287.21875 999.8125 L 287.21875 1000.9375 C 286.94942 1000.9375 286.57846 1001.0745 286.09375 1001.3438 L 286.09375 1000.625 C 286.09372 1000.1941 286.32774 999.92024 286.8125 999.8125 z M 311.375 1000.7188 L 311.0625 1002.6562 L 311.0625 1002.9688 L 311.375 1002.9688 L 312.03125 1000.7188 L 311.375 1000.7188 z M 284.96875 1000.9375 C 284.96872 1001.2068 285.06579 1001.3438 285.28125 1001.3438 C 284.90421 1002.0978 284.53324 1002.4688 284.15625 1002.4688 L 283 1002.4688 L 283 1002.1562 C 282.99998 1001.6715 283.6761 1001.2607 284.96875 1000.9375 z M 311.0625 1003.9375 C 310.63162 1003.9375 310.30918 1004.6795 310.09375 1006.1875 L 310.71875 1006.1875 L 311.0625 1003.9375 z M 261.9375 1006.125 L 263.3125 1006.125 L 263.3125 1007 C 262.71994 1006.6769 262.26055 1006.5313 261.9375 1006.5312 L 261.9375 1006.125 z M 309.75 1007.1562 L 309.4375 1008.7812 C 309.86837 1008.7813 310.09374 1008.5559 310.09375 1008.125 L 310.09375 1007.1562 L 309.75 1007.1562 z M 255.625 1007.4062 L 258.78125 1007.4062 L 258.78125 1007.9062 L 255.625 1007.9062 L 255.625 1007.4062 z M 252.0625 1011.5312 L 252.0625 1012.4062 L 253.84375 1012.4062 L 253.84375 1012.8125 C 252.65874 1012.8125 252.0624 1013.1263 252.0625 1013.7188 C 250.55434 1013.7188 249.81241 1013.1224 249.8125 1011.9375 L 248.9375 1011.9375 C 247.2139 1011.9375 244.32926 1012.5339 240.34375 1013.7188 L 240.34375 1014.6875 C 240.45138 1014.6875 241.04772 1014.8245 242.125 1015.0938 L 241.65625 1015.9688 L 241.65625 1016.4688 L 243.90625 1015.9688 L 243.90625 1016.875 L 239.375 1017.3438 L 239.375 1016.875 L 239.875 1015.9688 L 239 1015.5625 L 238.09375 1015.5625 C 238.09367 1016.7474 237.63428 1017.3438 236.71875 1017.3438 L 236.71875 1018.25 L 237.625 1018.25 L 237.625 1018.7188 C 236.44001 1018.7188 235.38428 1019.0326 234.46875 1019.625 L 233.5625 1019.625 L 233.5625 1019.125 C 234.47803 1019.125 234.93742 1018.8425 234.9375 1018.25 L 234.9375 1017.8438 L 234.46875 1017.8438 C 232.96061 1017.8438 232.05047 1018.2633 231.78125 1019.125 L 231.78125 1019.625 L 233.09375 1019.625 L 232.1875 1021 L 232.1875 1021.375 C 232.51058 1021.375 232.96997 1021.5518 233.5625 1021.875 C 233.56242 1021.3364 234.79499 1020.5945 237.21875 1019.625 L 241.25 1020 L 244.8125 1017.8438 C 244.81241 1018.1131 245.2718 1018.3956 246.1875 1018.7188 C 248.61108 1018.7188 249.81241 1018.1138 249.8125 1016.875 L 251.09375 1016.875 C 253.67891 1016.875 257.45107 1016.7381 262.40625 1016.4688 L 262.40625 1015.5625 C 262.08299 1015.5625 261.6236 1015.4169 261.03125 1015.0938 C 260.00782 1015.4169 259.41147 1015.5625 259.25 1015.5625 C 256.23377 1014.9701 254.7499 1013.6318 254.75 1011.5312 L 252.0625 1011.5312 z M 238.09375 1013.7188 C 237.55507 1013.7188 237.27253 1014.0412 237.21875 1014.6875 L 237.21875 1015.0938 L 238.5 1015.0938 L 238.5 1013.7188 L 238.09375 1013.7188 z M 244.40625 1013.7188 L 245.6875 1013.7188 C 245.68741 1014.0419 245.55046 1014.1875 245.28125 1014.1875 L 245.6875 1015.0938 L 243.5 1014.6875 C 243.49991 1014.1489 243.81371 1013.8265 244.40625 1013.7188 z M 249.3125 1014.1875 L 250.21875 1014.1875 C 250.21866 1014.5107 250.36425 1014.9701 250.6875 1015.5625 L 247.0625 1015.5625 L 247.0625 1015.0938 C 247.81644 1015.0938 248.55837 1014.78 249.3125 1014.1875 z M 236.71875 1015.0938 C 235.80306 1015.0938 234.74733 1015.3763 233.5625 1015.9688 L 233.96875 1016.875 C 235.79989 1016.6057 236.71867 1016.155 236.71875 1015.5625 L 236.71875 1015.0938 z M 264.1875 1015.5625 L 264.1875 1016.875 L 265.5625 1016.875 L 266.46875 1016.4688 C 266.46864 1015.9302 266.15484 1015.6164 265.5625 1015.5625 L 264.1875 1015.5625 z M 281.8125 1019.125 L 283.09375 1019.125 L 283.09375 1020 C 282.55503 1019.7307 282.13553 1019.625 281.8125 1019.625 L 281.8125 1019.125 z M 235.34375 1021 L 235.34375 1021.875 L 236.71875 1021.875 L 236.71875 1021 L 235.34375 1021 z M 216.9375 1024.5312 C 215.21394 1026.0393 213.52198 1026.8125 211.90625 1026.8125 L 211.90625 1027.2812 C 211.90619 1027.8737 212.21999 1028.1875 212.8125 1028.1875 L 214.1875 1028.1875 C 215.37235 1027.0564 216.57367 1026.2833 217.8125 1025.9062 L 216.9375 1024.5312 z M 219.125 1027.6875 L 219.59375 1027.6875 C 219.59369 1028.28 219.31114 1028.5937 218.71875 1028.5938 L 218.21875 1028.5938 C 218.21869 1028.109 218.53248 1027.7952 219.125 1027.6875 z M 208.78125 1032.6875 L 208.78125 1034 C 209.10435 1034 209.56374 1034.1456 210.15625 1034.4688 C 210.1562 1034.1456 210.29315 1034 210.5625 1034 C 210.13157 1033.1382 209.68082 1032.6875 209.25 1032.6875 L 208.78125 1032.6875 z M 207 1034.9688 C 206.46135 1034.9687 206.14756 1035.2513 206.09375 1035.8438 L 206.09375 1036.25 L 207 1036.25 C 207.5924 1036.25 207.87495 1035.9674 207.875 1035.375 L 207.875 1034.9688 L 207 1034.9688 z M 294.8125 1036.25 L 293.90625 1036.75 L 294.40625 1038.5312 L 295.28125 1038.5312 L 295.28125 1037.1562 L 294.8125 1036.25 z M 288.09375 1041.6562 L 288.5 1041.6562 L 288.5 1042.1562 L 288.09375 1043.0312 L 287.21875 1043.0312 L 287.21875 1042.5625 C 287.81107 1042.5625 288.09362 1042.2487 288.09375 1041.6562 z M 270.5 1051.5938 L 271.375 1051.5938 L 271.375 1052 C 270.72857 1052 270.13223 1052.1768 269.59375 1052.5 L 269.1875 1052.5 L 269.1875 1052 C 269.45668 1052 269.90743 1051.863 270.5 1051.5938 z M 268.21875 1052 L 268.71875 1052.9688 C 266.45654 1053.5612 265.11827 1053.875 264.6875 1053.875 L 263.78125 1053.875 L 263.78125 1053.375 L 268.21875 1052 z M 270.5 1052.9688 L 271.375 1052.9688 L 271.375 1053.875 L 269.59375 1053.875 C 269.59364 1053.3364 269.90743 1053.0226 270.5 1052.9688 z M 253.84375 1053.875 C 254.65154 1053.875 255.56168 1054.1575 256.53125 1054.75 L 257.40625 1054.2812 L 257.875 1054.2812 L 257.875 1054.75 L 257 1054.75 L 257 1055.25 L 257.40625 1056.125 C 257.13685 1056.125 256.9999 1056.2619 257 1056.5312 L 256.125 1056.125 C 256.1249 1055.8018 256.26185 1055.6562 256.53125 1055.6562 L 253.84375 1053.875 z M 258.78125 1054.2812 L 260.625 1054.2812 L 260.625 1054.75 L 258.78125 1054.75 L 258.78125 1054.2812 z "
       style="font-size:165.45635985999999207px;font-style:normal;font-variant:normal;font-weight:normal;font-stretch:normal;line-height:125%;letter-spacing:0px;word-spacing:0px;fill:#2b0000;fill-opacity:1;stroke:none;font-family:Art Brewery;-inkscape-font-specification:Art Brewery"
       id="path3052"
       d="m 198.84375,886.21875 c -3.28547,0.59259 -4.93754,1.05198 -4.9375,1.375 -4.41651,1.4e-4 -10.58268,2.99048 -18.5,8.96875 -7.00175,8.50992 -10.73402,14.5305 -11.21875,18.03125 -0.64632,6.35552 -1.41951,9.53135 -2.28125,9.53125 -1e-5,0.70027 0.31379,3.23123 0.90625,7.59375 1.50806,2.36991 5.56277,5.82828 12.1875,10.40625 l 0.40625,0 L 175,939.875 c -1.99282,-2.31587 -3.19414,-4.11353 -3.625,-5.40625 l 0.875,-1.375 c -0.86177,9e-5 -1.28127,-0.3137 -1.28125,-0.90625 l 0,-3.625 c -2e-5,-0.48464 0.28253,-0.76718 0.875,-0.875 l -0.46875,2.25 0,2.25 0.875,0 0,-2.75 c -2e-5,-0.48464 0.74192,-2.56485 2.25,-6.28125 L 174.125,922.25 c 1.23875,-1.23866 2.71398,-3.77826 4.4375,-7.65625 7.70188,-11.68739 18.23655,-17.53112 31.59375,-17.53125 l 1.375,0 c 1.50801,1.3e-4 3.30567,0.28267 5.40625,0.875 l 0,0.5 c -1.02339,1.3e-4 -2.53851,1.16156 -4.53125,3.53125 -0.32321,1.2e-4 -0.50006,-0.10558 -0.5,-0.375 -1.18496,1.2e-4 -4.3209,1.79779 -9.4375,5.40625 -5e-5,1.77748 -1.05578,2.65636 -3.15625,2.65625 -1.40039,2.69309 -2.27927,4.03136 -2.65625,4.03125 l 0,-0.875 c -3.87792,3.12396 -6.73131,6.89613 -8.5625,11.3125 -1.99283,5.92464 -3.371,9.37437 -4.125,10.34375 l 0.46875,3.15625 0,0.875 c -3e-5,0.59254 -0.28257,0.87509 -0.875,0.875 0.26927,1.56201 0.40622,2.48079 0.40625,2.75 l -0.40625,4.46875 c 0.26927,8e-5 0.40622,0.14567 0.40625,0.46875 l -0.40625,0 0.40625,6.3125 0,0.46875 c -9.20999,7e-5 -17.02823,2.70787 -23.4375,8.09375 l 0,0.875 c 0,0.4848 0.91877,1.08114 2.75,1.78125 2.6391,6e-5 8.34589,-1.33821 17.125,-4.03125 l 0,0.46875 3.15625,-0.46875 2.25,0 c 2.26207,4.41654 4.51048,8.01186 6.71875,10.8125 -4e-5,0.59251 -0.28258,0.9063 -0.875,0.90625 l 0.46875,0.875 -11.3125,9.0625 c -3e-5,0.5925 0.31377,0.87504 0.90625,0.875 l 4.09375,-2.65625 0.40625,0 0,0.875 c -0.37705,4e-5 -2.17471,1.19272 -5.40625,3.5625 l 0,-0.90625 -2.25,0 0,0.90625 c 1.23874,4e-5 1.84373,0.45943 1.84375,1.375 -0.48476,0.3232 -1.40354,0.46879 -2.75,0.46875 l 0,0.40625 c -2e-5,0.59249 0.31377,0.90629 0.90625,0.90625 l 1.84375,0 0,-0.40625 c 8.07889,-5.76292 12.12496,-9.21265 12.125,-10.34375 l 0.96875,0 0.875,0.40625 c -4e-5,0.3232 -0.14563,0.4688 -0.46875,0.46875 -4e-5,0.3232 0.14555,0.78259 0.46875,1.375 l 0,0.40625 -2.25,-0.40625 -0.46875,0 0,0.90625 0.46875,0.875 c -0.32319,4e-5 -0.46879,0.137 -0.46875,0.40625 l 0,0.96875 2.25,0.40625 0.46875,0 c 1.50803,-2.69293 3.0145,-4.20805 4.46875,-4.53125 l 0,-0.875 -1.3125,0 -2.25,1.84375 -0.5,0 0.90625,-1.375 0,-1.375 -0.90625,0 0,-0.46875 0.5,0 0.875,0.46875 0,-0.875 0.90625,0 c 1.83118,1.50811 2.88691,2.25005 3.15625,2.25 -0.80794,1.29267 -4.25767,4.14606 -10.34375,8.5625 l 0,-1.375 c 0.32312,4e-5 0.78251,-0.14555 1.375,-0.46875 -4e-5,-0.4847 -0.32247,-0.79849 -0.96875,-0.90625 l -0.40625,0 c -0.43091,4e-5 -0.8903,0.63627 -1.375,1.875 -3e-5,0.3232 0.14556,0.74269 0.46875,1.28125 l 0,0.5 c -14.32664,10.17947 -23.80559,16.3456 -28.4375,18.5 -1.88509,2.693 -3.5059,4.0313 -4.90625,4.0312 l 0,0.9063 1.34375,0 1.3125,-0.9063 0,1.375 c 1.83122,10e-5 2.74999,-0.4593 2.75,-1.375 l -2.28125,0.4063 0,-0.875 c 0.70017,0 3.40797,-1.5151 8.09375,-4.5313 0.9156,10e-5 1.37499,0.3225 1.375,0.9688 0.377,0 1.43273,-0.4594 3.15625,-1.375 l 0,-0.9062 -0.90625,0 -1.375,0.9062 -0.40625,0 0,-0.5 c 4.68576,-2.5314 7.07976,-4.0066 7.1875,-4.4375 0.59243,2e-5 0.90623,0.3138 0.90625,0.9063 -0.75405,0 -2.40612,0.7419 -4.9375,2.25 l 0,0.875 c 8.45592,-4.57808 13.70331,-8.03645 15.75,-10.4063 l -0.875,0 3.5625,-3.15625 c 3.01609,-1.99276 5.13619,-4.10422 6.375,-6.3125 0.80785,4e-5 2.74247,-1.47519 5.8125,-4.4375 l 0.46875,0 c -5e-5,0.80794 2.70775,2.74255 8.09375,5.8125 l 0.875,-0.46875 c -1.56198,-3.23153 -3.49659,-5.76248 -5.8125,-7.59375 l 0,-0.96875 c 1.56187,-1.07714 3.95588,-3.32555 7.1875,-6.71875 l 0.40625,0 0,0.90625 0.5,0 0.875,-0.5 c 6.0322,6.14003 9.06243,12.02366 9.0625,17.625 -0.32323,5.17054 -0.50007,8.16089 -0.5,8.96875 l 0.5,3.21875 c -0.32323,1.0772 -0.50007,2.4155 -0.5,4.0313 l 0,3.5624 0.5,0.9063 -0.5,0 c -7e-5,0.3232 0.17677,0.7826 0.5,1.375 l -0.5,0.875 c 0.91554,5.2782 1.37493,8.4142 1.375,9.4375 -0.32323,0 -0.46882,0.3537 -0.46875,1 l -0.90625,-0.5 c -0.4848,0 -0.76735,0.2825 -0.875,0.875 -7e-5,0.5925 0.28248,0.9063 0.875,0.9062 L 225,1021.375 c -7e-5,0.3232 0.17677,0.7825 0.5,1.375 l -2.28125,1.7812 c -4.14724,1.7236 -7.14623,3.5212 -9.03125,5.4063 l 0,0.5 0.46875,0 1.78125,-1.375 c 0.70011,0 1.29645,0.1768 1.78125,0.5 l 3.625,-0.9687 -0.46875,-0.9063 -0.875,0.5 -0.40625,0 0.40625,-0.9063 2.71875,0.4063 c 0.59239,0 0.90618,-0.2825 0.90625,-0.875 l -0.5,-0.9063 c 0.91554,-0.4847 1.37493,-0.9441 1.375,-1.375 0.48467,1e-4 1.54039,2.4339 3.15625,7.2813 2.31588,7.2172 5.62866,13.5203 9.9375,18.9063 2.96219,1.7773 4.43741,2.97 4.4375,3.5624 l 1.875,0 c -9e-5,0.3232 -0.17693,0.4688 -0.5,0.4688 l 0,0.5 c 5.76287,1.7773 9.98579,2.6562 12.625,2.6562 7.4325,0 12.68854,-1.3383 15.8125,-4.0312 l 2.6875,0 c 1.77724,0 4.31684,-1.2326 7.65625,-3.6562 0.59233,-1e-4 0.90612,0.4593 0.90625,1.375 l 0.875,0 c -1.3e-4,-0.3232 -0.13708,-0.4688 -0.40625,-0.4688 -1.3e-4,-1.5081 1.78889,-3.4427 5.34375,-5.8125 1.77723,-2.693 2.8416,-4.0625 3.21875,-4.0625 -1.4e-4,-1.5619 0.31366,-3.3596 0.90625,-5.4062 -0.32329,-2.1544 -0.50014,-3.3558 -0.5,-3.625 l 0.5,-0.9063 c -1.2e-4,-10.1652 -5.57705,-17.8045 -16.65625,-22.9375 1.65287,-0.3085 3.22381,-0.7008 4.6875,-1.2812 6.30153,-3.3932 9.43747,-5.6901 9.4375,-6.875 l 0.75,0.4062 0.8125,-0.4062 -0.40625,-0.7188 c -0.26933,3e-5 -0.67155,0.0971 -1.15625,0.3125 l -0.375,0 c -3e-5,-0.32313 1.11287,-1.43603 3.375,-3.375 l 0,-0.40625 -1.125,0 0,-0.75 c 1.29259,3e-5 2.07442,-0.87886 2.34375,-2.65625 l -0.8125,0 -0.71875,0.40625 0,-0.71875 0.3125,0 c 2.2531,-1.83303 4.09469,-3.59609 5.96875,-5.375 -1.66431,6.28147 -3.48969,13.5638 -5,18.7813 0.70018,1.4542 1.80444,2.1875 3.3125,2.1874 l 0.875,-0.1562 c 0.0371,-0.3133 0.20391,-0.545 0.59375,-0.5938 l 0,0.5 c 1.23877,0.5387 1.94081,0.8126 2.15625,0.8126 0.59245,0 0.90625,-0.2739 0.90625,-0.8126 l 0.5625,0 c 0,0.9157 0.54781,1.3751 1.625,1.375 0.80789,-3.7162 1.63824,-6.3356 2.5,-7.8437 l 4.53125,-18.09375 -0.59375,0 c -0.48474,2.58529 -0.91288,3.87504 -1.34375,3.875 0.70016,-3.12381 1.03124,-5.05842 1.03125,-5.8125 -0.16159,4e-5 -0.25001,-0.097 -0.25,-0.3125 0.9156,-1.45416 1.37499,-2.55842 1.375,-3.3125 l 0.34375,0 0,1.59375 0.5625,0 1.59375,-6.6875 0,-0.5 -0.5625,0 c -10e-6,0.70023 -0.1855,1.06255 -0.5625,1.0625 0.53858,-2.90836 1.12628,-5.02846 1.71875,-6.375 l 0.3125,0 0,0.21875 -1.125,4.53125 0.21875,0 c 0.377,5e-5 1.23861,-2.5309 2.53125,-7.59375 2.31594,0.10778 4.01654,0.60706 5.09375,1.46875 l 1.34375,0 c 0.37699,6e-5 0.59373,-0.18542 0.59375,-0.5625 3.12383,-0.21538 4.65622,-0.61759 4.65625,-1.15625 l 1.46875,0.25 c 0.53857,-0.16152 0.81247,-0.347 0.8125,-0.5625 2.42365,6e-5 4.85754,-1.47517 7.28125,-4.4375 1.50803,-0.80783 2.24996,-2.55696 2.25,-5.25 l -0.3125,-1.46875 c 0.2154,7e-5 0.31246,-0.0571 0.3125,-0.21875 -0.21548,-0.37694 -0.31254,-0.69074 -0.3125,-0.90625 -1.72354,7e-5 -2.8278,0.49935 -3.3125,1.46875 -3.2316,3.07006 -7.64,5.19016 -13.1875,6.375 l 0,-0.25 -1.9375,0.25 -1.6875,0 -0.8125,0.5625 -0.25,0 0,-0.8125 0.8125,-3.96875 c 1.66962,-4.4164 2.49998,-7.55234 2.5,-9.4375 l 0,-0.3125 -0.5625,0 c -2e-5,0.48481 -0.37099,1.68614 -1.125,3.625 l -0.25,0 0,-0.25 c -2e-5,-0.10764 0.18547,-0.75251 0.5625,-1.9375 -2e-5,-0.32308 -0.1855,-0.50856 -0.5625,-0.5625 -2e-5,-0.1615 0.0884,-0.71795 0.25,-1.6875 l 0.3125,0 0,0.5625 0.5625,0 c 0.70015,-2.47745 1.06248,-3.89551 1.0625,-4.21875 l -0.46875,0 0.21875,-0.5625 c 0.75401,8e-5 1.5272,-1.47514 2.28125,-4.4375 l -0.5625,-0.8125 0.21875,-0.5625 0.5625,0.25 c 0.37699,9e-5 0.59373,-0.18539 0.59375,-0.5625 l 0,-1.125 -0.8125,0.5625 c 0.1077,-0.91552 0.3816,-1.37491 0.8125,-1.375 l 0,0.8125 0.21875,0 7.28125,-16.71875 0.5625,0 c -4.84738,10.55656 -7.28127,16.31187 -7.28125,17.28125 l 0,0.3125 c 0.10003,6e-5 1.97342,-4.05648 3.3125,-6.90625 l 0,-0.75 c -3e-5,-0.36794 0.24562,-0.56482 0.65625,-0.625 l 0,-0.0312 c 0.58321,-1.257 0.46885,-0.89087 1.21875,-2.53125 -0.0379,0.35102 -0.17366,0.59384 -0.5625,0.59375 l -0.34375,0 c -3e-5,-0.37691 0.22535,-0.60229 0.65625,-0.65625 l 0.28125,0 c 0.075,-0.16413 0.0483,-0.0821 0.125,-0.25 l 5.5625,-10.34375 -0.21875,-0.5625 c 2.04662,-3.55461 3.24795,-5.31238 3.625,-5.3125 -4e-5,-1.07707 0.91874,-2.36681 2.75,-3.875 2.2082,-2.63899 5.01306,-4.97582 8.40625,-6.96875 l 0.21875,0 c 0.16356,0.20599 0.13336,0.12968 0.28125,0.3125 1.35513,-1.02514 2.24996,-2.0372 2.25,-3.0625 l 1.59375,0 0,0.65625 L 353,896.125 c 0.68654,0.80392 1.54472,1.81258 1.6875,1.8125 -5e-5,0.21556 -0.0885,0.48947 -0.25,0.8125 0.53854,2.31608 0.81245,4.01668 0.8125,5.09375 l 0.5625,0 0,-1.125 0.5625,0 c -5e-5,0.59258 0.0884,1.05196 0.25,1.375 l -0.25,0.5625 c -5e-5,0.53871 0.18543,1.18359 0.5625,1.9375 0.43082,-0.75391 0.98727,-1.12488 1.6875,-1.125 l 0,-0.25 c -6e-5,-0.3769 -0.37102,-0.56238 -1.125,-0.5625 l 0,-0.5625 0.25,0 0.5625,0.3125 0,-0.3125 -0.25,-0.5625 0.5625,-0.25 c -6e-5,-0.37689 -0.18554,-1.15008 -0.5625,-2.28125 l -0.5625,0.34375 c -6e-5,0.37714 0.0884,0.70822 0.25,1.03125 l 0,0.34375 -0.25,0 c -6e-5,-0.32303 -0.18554,-0.694 -0.5625,-1.125 l 0,-1.375 1.125,0 c -6e-5,-0.37689 -0.18554,-1.02176 -0.5625,-1.9375 l 0.8125,0 c -6e-5,0.32328 0.18543,0.96815 0.5625,1.9375 -0.16163,1.2e-4 -0.25006,0.0573 -0.25,0.21875 0.48468,1.29275 0.847,1.93762 1.0625,1.9375 -6e-5,0.37714 -0.1769,0.56262 -0.5,0.5625 -6e-5,0.431 0.0884,0.83321 0.25,1.15625 -6e-5,0.21556 -0.0885,0.48946 -0.25,0.8125 -6e-5,0.37714 0.17679,1.03065 0.5,2 0.37696,1.2e-4 0.56244,-0.37085 0.5625,-1.125 l 0.5625,0 c -6e-5,0.75415 0.18542,1.12512 0.5625,1.125 -6e-5,-0.43076 0.12825,-0.80172 0.34375,-1.125 l -0.59375,-0.875 0,-1.375 0.59375,0 0,-0.59375 c -0.59251,1.2e-4 -0.90631,-0.24253 -0.90625,-0.78125 -6e-5,-0.48461 0.097,-1.2578 0.3125,-2.28125 l 0.59375,0 c 0.91555,0.91574 1.34369,1.8744 1.34375,2.84375 l 0.59375,0 0.21875,-1.375 c -1.02339,-2.69285 -1.85375,-4.20797 -2.5,-4.53125 l 0.34375,-0.5625 0,-0.25 c -0.96953,-1.23864 -1.46881,-2.06899 -1.46875,-2.5 -2.69303,-2.7467 -5.77179,-5.18059 -9.21875,-7.28125 -3.23162,1.4e-4 -8.24499,2.805 -15.03125,8.40625 -5.81685,7.27115 -10.194,14.34746 -13.15625,21.1875 l 0,1.125 c 0.21542,1.1e-4 0.49796,-0.0883 0.875,-0.25 l 0.25,0 0,0.25 c -0.26932,0.5387 -0.54322,0.81261 -0.8125,0.8125 l -0.3125,0 0,-0.8125 c -1.56194,1.93905 -3.68204,6.86401 -6.375,14.78125 l 0.8125,1.125 -0.25,1.375 -0.8125,0 0.25,-1.375 0,-0.3125 -0.5625,0 c -4.09333,11.79531 -6.15626,17.776 -6.15625,17.9375 -2.8007,11.04126 -4.46141,17.16754 -5,18.40625 -1.52536,6.14768 -2.77123,10.41856 -4.1875,15.8125 -0.96726,0.34096 -1.70184,0.48154 -3.5,1.46875 -4e-5,-0.2154 -0.23405,-0.31246 -0.71875,-0.3125 1.45417,-1.07715 2.32441,-2.46395 2.59375,-4.1875 -1.50811,-1.02329 -2.65226,-1.56246 -3.40625,-1.5625 l -7.90625,5.75 c -1.18494,0.43091 -1.82981,1.0359 -1.9375,1.84375 -0.26932,4e-5 -0.64029,-0.097 -1.125,-0.3125 -6.51702,4.25493 -11.07101,6.37503 -13.65625,6.375 l -3.8125,0 c -3.12386,3e-5 -5.00994,-1.24982 -5.65625,-3.78125 0,-1.34645 0.50792,-2.2167 1.53125,-2.59375 l 0.75,0 -0.40625,0.71875 0,0.40625 c 0.59245,4e-5 1.10037,-0.13692 1.53125,-0.40625 0.26929,4e-5 0.64026,0.13699 1.125,0.40625 2.31595,-0.2154 5.58884,-1.97317 9.84375,-5.3125 3.01611,-1.07715 4.53123,-1.85033 4.53125,-2.28125 l -0.71875,0 0,-0.40625 c 1.2926,-1.29258 2.54246,-2.26853 3.78125,-2.96875 2.96224,-2.53135 4.98528,-3.81245 6.0625,-3.8125 5.76293,-7.37869 8.8018,-12.20659 9.125,-14.46875 -0.75407,-6.57079 -1.63296,-10.98782 -2.65625,-13.25 l -4.1875,-4.5 c -0.53863,8e-5 -1.03791,0.0972 -1.46875,0.3125 -1.93897,-0.48465 -3.09176,-0.71867 -3.46875,-0.71875 l -0.3125,0 0,1.125 c -3e-5,0.48482 0.23399,0.71883 0.71875,0.71875 l 0,0.40625 c -5.06282,1.61586 -7.59377,2.76001 -7.59375,3.40625 -2e-5,0.48481 -2.53098,2.61355 -7.59375,6.4375 -1.99281,3.39322 -4.89474,6.18944 -8.71875,8.34375 -5.33209,7.54038 -8.49928,15.36726 -9.46875,23.5 l 0,2.65625 c 2.5314,9.15614 4.78845,14.6203 6.78125,16.3437 0.56301,0.4525 1.22134,0.7271 1.8125,1.125 l -4.0625,0 -2.25,-0.4062 c -10e-5,0.2693 -0.17694,0.4063 -0.5,0.4062 l 0,-0.4062 c -3.60868,0 -5.40634,0.4594 -5.40625,1.375 l 0,2.1875 0.46875,0.9687 c 0.59236,10e-5 0.90615,-0.3224 0.90625,-0.9687 0.64622,0.2693 2.29829,0.5917 4.9375,0.9687 -10e-5,-0.3231 0.42804,-0.4999 1.34375,-0.5 l 1.375,0.9063 2.6875,0 0,-0.4063 c 1.13094,10e-5 2.18667,0.137 3.15625,0.4063 l 2.25,-0.4063 c 1.50795,0.8618 2.56368,1.2813 3.15625,1.2813 l -0.40625,0.9687 0,0.4063 3.15625,-0.4063 0.40625,0 c -1.2e-4,0.4309 0.45927,1.0273 1.375,1.7813 l 0,0.875 -2.28125,0.5 0,-0.5 0.5,-0.875 c -0.32327,0 -0.50012,-0.3138 -0.5,-0.9063 l -2.25,0 -1.78125,-0.875 -0.90625,0.4063 0.40625,0.875 0,0.5 -2.25,-1.375 -1.78125,0 -2.25,0.4687 0,-0.875 -3.15625,0 c -10e-5,0.5925 -0.59644,0.8751 -1.78125,0.875 l 0,0.9063 c 1.77726,0 2.65615,0.4594 2.65625,1.375 0.64621,0 0.96864,-0.3224 0.96875,-0.9687 l 4.0625,0.4687 0.875,-0.4687 c 2.10041,0.377 3.15614,0.982 3.15625,1.8437 l 0.46875,0 0,-0.875 c 1.66953,0 4.20048,0.7333 7.59375,2.1875 -1.2e-4,-0.2693 0.17672,-0.4062 0.5,-0.4062 -1.2e-4,-0.3232 -0.17696,-0.5 -0.5,-0.5 -1.2e-4,-0.2693 0.17672,-0.4063 0.5,-0.4063 l -0.90625,-1.375 0,-0.4687 0.40625,0 c 0.59233,0 0.90613,0.6049 0.90625,1.8437 l 0.46875,0 0.90625,-0.4687 c -1.2e-4,0.3231 0.45926,0.6057 1.375,0.875 l -0.5,0.9062 -0.875,-0.4062 -0.40625,0 c -0.64644,0 -0.96887,0.4593 -0.96875,1.375 -2.36994,-1.2388 -4.02201,-1.875 -4.9375,-1.875 l -0.40625,0 0,0.9062 -0.46875,0 -2.28125,-0.4062 0,0.4062 c -1.1e-4,0.6463 0.91866,1.1057 2.75,1.375 l 0.90625,-0.4062 -0.5,-0.9688 c 0.91549,0 1.97122,0.3224 3.15625,0.9688 l -0.40625,0.875 c -1.2e-4,0.2693 0.59622,0.6888 1.78125,1.2812 3.50074,0.9156 7.09607,3.6633 10.8125,8.1875 -6.24783,7.648 -13.15593,12.436 -20.75,14.375 l -12.125,2.75 -9.53125,-1.7813 c -9.91023,-4.3087 -14.87508,-12.4494 -14.875,-24.4062 0.32308,0 0.49992,-0.1369 0.5,-0.4062 -0.32323,-0.5386 -0.50008,-1.1436 -0.5,-1.8438 l 0,-10.75 c -8e-5,-1.0772 -0.13703,-2.4553 -0.40625,-4.125 0.26922,-0.4309 0.40617,-1.3097 0.40625,-2.65625 -8e-5,-13.14168 -4.0149,-24.73208 -12.09375,-34.75 l 1.78125,-1.28125 -0.90625,-1.375 0,-0.5 4.9375,-7.59375 -0.40625,-0.96875 c 3.28536,-5.49359 5.96191,-12.6756 8.0625,-21.5625 l 1.78125,0 0,-1.375 c -0.26938,9e-5 -0.68887,-0.17675 -1.28125,-0.5 -8e-5,-0.59236 0.41942,-0.8749 1.28125,-0.875 l 0,-0.875 c -0.86183,10e-5 -1.28133,-0.3137 -1.28125,-0.90625 -8e-5,-0.70007 0.13688,-1.29642 0.40625,-1.78125 l -0.40625,-0.875 0.40625,-1.875 c -8e-5,-0.32305 -0.13703,-0.78244 -0.40625,-1.375 l 0.875,-0.40625 c -8e-5,-5.709 -0.74201,-10.04625 -2.25,-13.0625 -8e-5,-1.66953 4.65098,-3.03905 13.96875,-4.0625 5.27814,1.2e-4 10.70237,0.91026 16.25,2.6875 6.30145,2.69309 9.43738,6.60221 9.4375,11.71875 -1.2e-4,0.32326 -0.14571,0.78265 -0.46875,1.375 l 0.46875,0.875 c -1.2e-4,8.56376 -4.36862,17.30077 -13.09375,26.1875 l 0.5,0.875 c -2.74693,0.43095 -4.1251,1.02729 -4.125,1.78125 -5.06289,3.23164 -7.59384,5.0293 -7.59375,5.40625 l -1.375,0 c -0.9157,0.32323 -1.37509,0.63702 -1.375,0.90625 -9.53321,4.20111 -15.83633,6.28131 -18.90625,6.28125 l 0,0.96875 c 0.53852,6e-5 2.19059,-0.32237 4.9375,-0.96875 l 0.46875,0 0,0.96875 -3.125,0.40625 -1.375,0 0,0.90625 3.15625,0 0.875,-0.40625 c -7e-5,0.59252 0.28247,0.87506 0.875,0.875 l 0.96875,0 c 1.45413,6e-5 2.96061,-0.45933 4.46875,-1.375 l 1.375,0 0,0.5 c -0.53868,6e-5 -1.31186,0.28261 -2.28125,0.875 l 0.5,0.90625 c -0.80797,6e-5 -3.20197,0.74199 -7.1875,2.25 l 0,0.875 0.875,0 0.875,-0.40625 0,0.40625 c 1.50799,6e-5 2.28117,-0.28249 2.28125,-0.875 3.77008,-0.3231 8.55809,-1.66137 14.375,-4.03125 l 0.5,0 0,0.875 c -3.12394,0.70023 -5.69479,1.57912 -7.6875,2.65625 -7.48655,0.96953 -11.21882,2.48464 -11.21875,4.53125 14.3804,-2.47748 25.02078,-6.20976 31.96875,-11.21875 12.603,-10.01779 18.90613,-19.94749 18.90625,-29.75 l 0,-4.5 c -1.2e-4,-5.87058 -2.99911,-12.94689 -9.03125,-21.1875 -5.81693,-5.70898 -12.89324,-9.48115 -21.1875,-11.3125 -9e-5,0.32329 -0.1058,0.50013 -0.375,0.5 L 248.4375,893 c -0.48483,1.3e-4 -0.76737,0.31393 -0.875,0.90625 -4.52428,-0.32303 -6.81259,-0.91937 -6.8125,-1.78125 -1.50815,1.3e-4 -2.25008,0.41963 -2.25,1.28125 l -0.875,0 0,-0.875 -2.6875,0 c -0.64639,1.3e-4 -0.96883,0.45952 -0.96875,1.375 l -0.875,0 c -0.96955,1.3e-4 -4.13673,0.74206 -9.46875,2.25 -5.60145,-5.60125 -10.99444,-8.73719 -16.21875,-9.4375 l -6.3125,0 -2.25,-0.5 z M 353,896.125 c -0.2331,-0.27295 -0.26672,-0.25937 -0.5625,-0.625 -0.3535,0.26742 -0.55429,0.5451 -1,0.8125 l 0,0.65625 0.65625,0 L 353,896.125 z M 331.6875,922.5 c -0.0188,0.041 -0.0126,0.0217 -0.0312,0.0625 0.004,-0.0379 0.0625,-0.0205 0.0625,-0.0625 l -0.0312,0 z m -1.25,2.625 c -0.31538,0.67961 -0.38989,0.80815 -0.65625,1.375 l 0,0.21875 0.34375,0 0.3125,-1.59375 z m -30.6875,82.5312 -0.59375,0.094 c -0.004,0.033 -0.0625,0.027 -0.0625,0.062 l 0.65625,0.3125 0,-0.4688 z m -85.5625,22.7813 -0.90625,0 -2.25,1.375 0.5,0.875 c 1.23871,-0.4309 2.1176,-1.1728 2.65625,-2.25 z m -26.59375,-37 0.5,0 c 0.59242,3e-5 0.87497,-0.28251 0.875,-0.875 l 0,-0.40625 c -0.91564,0.43091 -1.37503,0.85041 -1.375,1.28125 z M 350.8125,897.28125 c -0.70022,0.10785 -1.4734,1.1064 -2.28125,2.9375 l 0.65625,0.3125 c 0.64627,-0.70005 1.29114,-1.79567 1.9375,-3.25 l -0.3125,0 z m -114.5625,1.5625 1.375,0 0,0.46875 c -0.32324,1.3e-4 -0.78263,0.13708 -1.375,0.40625 l -1.3125,0 0,-0.40625 c 0.32308,1.3e-4 0.77382,-0.14547 1.3125,-0.46875 z m 3.125,0 2.28125,0 0,0.46875 c -0.32324,1.3e-4 -0.77399,0.13708 -1.3125,0.40625 -0.53868,1.2e-4 -0.86111,-0.28242 -0.96875,-0.875 z m 0.5,1.75 c 0.70009,1.2e-4 1.29643,0.17697 1.78125,0.5 l 0.875,-0.5 0.5,0 0,1 c -3.55481,0.26942 -6.12566,0.37512 -7.6875,0.375 l -0.40625,0 0.40625,-0.875 2.28125,0.5 c 0.53851,1.2e-4 1.28045,-0.35356 2.25,-1 z m 97.03125,0.25 0,0.34375 c -3e-5,0.431 -0.22541,0.62512 -0.65625,0.625 l 0,-0.3125 c -3e-5,-0.37689 0.22534,-0.60227 0.65625,-0.65625 z m 10,0 -0.3125,0.65625 c 0.21539,0.431 0.31246,0.75343 0.3125,0.96875 -0.16162,1.2e-4 -0.67818,0.54793 -1.59375,1.625 l 0,-0.96875 -0.34375,0 0,0.625 c 0.2154,0.37714 0.34371,0.82788 0.34375,1.3125 -0.3232,1.2e-4 -0.77395,0.74205 -1.3125,2.25 l -0.625,0 0,-0.3125 0.3125,-0.65625 0,-0.3125 -0.3125,0 c -4e-5,0.43099 -0.22541,0.62512 -0.65625,0.625 l 0,0.65625 0.3125,0.65625 c -1.07723,1.2e-4 -1.59379,0.51668 -1.59375,1.59375 l 0,0.34375 0.3125,0 c -4e-5,-0.6462 0.22533,-0.96863 0.65625,-0.96875 l 0.3125,0 0,0.625 c -1.29267,1.72362 -1.93754,3.04461 -1.9375,3.90625 l 0,0.625 0.3125,0 c 2.26206,-4.84724 4.64742,-8.94184 7.125,-12.28125 l 0,-0.96875 c -0.43092,0.21556 -0.75336,0.34387 -0.96875,0.34375 -4e-5,-0.21531 -0.12836,-0.34363 -0.34375,-0.34375 z m -4.5,0.34375 0.3125,0 c -0.3232,0.86187 -0.64563,1.28137 -0.96875,1.28125 l 0,-0.65625 c -4e-5,-0.37689 0.22533,-0.57102 0.65625,-0.625 z m -112,1.28125 c -7e-5,0.26942 0.59627,0.40637 1.78125,0.40625 l 0,0.46875 -3.125,0.5 0,-0.96875 c 0.32308,1.2e-4 0.75122,-0.13683 1.34375,-0.40625 z m 9.9375,0 3.15625,0 0,0.40625 -3.15625,0 0,-0.40625 z m -2.25,0.40625 1.28125,0 0,0.46875 c -0.70026,1.2e-4 -2.32108,0.31392 -4.90625,0.90625 l -0.90625,0 0,-0.40625 c 0.75395,1.2e-4 2.26907,-0.32231 4.53125,-0.96875 z m 134.34375,0.5625 0,1.28125 0.65625,0 c -7e-5,-0.21532 -0.0971,-0.31238 -0.3125,-0.3125 l 0.3125,-0.65625 0,-0.3125 -0.65625,0 z m -32.3125,0.3125 0.65625,0 -0.65625,1.9375 -0.625,0 c 0.43084,-0.91549 0.62496,-1.56036 0.625,-1.9375 z m -6.46875,1.625 0.65625,0 c -0.86178,1.56204 -1.28128,2.52935 -1.28125,2.90625 -3.01616,5.3322 -4.53128,8.23412 -4.53125,8.71875 l -0.3125,0 0,-0.3125 c -3e-5,-0.48463 0.74191,-2.09681 2.25,-4.84375 l -0.3125,-0.65625 c 0.70014,-0.10761 1.86158,-2.04222 3.53125,-5.8125 z M 221.375,906.5 l 0.875,0 c -7e-5,0.48485 -0.87895,1.08119 -2.65625,1.78125 l 0,-0.875 c 0.48467,1.2e-4 1.08101,-0.31368 1.78125,-0.90625 z m -5.40625,0.5 0.96875,0 0,0.40625 c -0.64637,1.2e-4 -0.96881,0.28266 -0.96875,0.875 l -0.40625,0 0,-0.40625 0.40625,-0.875 z m 122.875,0 0.3125,0 c -0.64635,2.04678 -1.48535,3.56189 -2.5625,4.53125 l 0,-0.34375 c 0.70014,-1.99269 1.44207,-3.37949 2.25,-4.1875 z m -125.15625,1.78125 0.5,0 -0.5,0.875 -1.28125,0 0,-0.46875 c 0.3231,1.2e-4 0.7426,-0.13684 1.28125,-0.40625 z m 8.15625,0 0.40625,0 c -7e-5,0.43099 -0.56516,0.89038 -1.75,1.375 l 0,-0.96875 c 0.32309,1.2e-4 0.75123,-0.13684 1.34375,-0.40625 z m 0.90625,0.875 0.875,0.5 c -7e-5,0.32327 -0.13702,0.74277 -0.40625,1.28125 -7e-5,1.23888 0.13688,2.4402 0.40625,3.625 -7e-5,13.19567 -5.8438,27.31703 -17.53125,42.34375 -3.01618,-1.2387 -4.50005,-1.98063 -4.5,-2.25 -5.70915,-0.59238 -8.56254,-1.18872 -8.5625,-1.78125 l 0,-2.6875 0.46875,-2.25 c -0.32319,8e-5 -0.46879,-0.17677 -0.46875,-0.5 0.32312,-0.53852 0.46871,-1.10361 0.46875,-1.75 l 0,-3.15625 c 1.13101,-1.72342 1.72735,-3.23854 1.78125,-4.53125 4.95503,-11.41811 11.85449,-19.5189 20.6875,-24.3125 4.52413,-2.74672 6.78118,-4.26184 6.78125,-4.53125 z m -15.75,2.65625 0.875,0 0,1.375 -0.875,0 0,-1.375 z m 4.53125,0 0.875,0 c -0.48479,0.91572 -0.94418,1.37511 -1.375,1.375 l -0.875,0 0,-0.875 c 0.3231,1.1e-4 0.78249,-0.17673 1.375,-0.5 z m -2.75,1.375 c 0.5924,0.32327 1.05179,0.50011 1.375,0.5 l 0,0.40625 c -0.48479,1.1e-4 -1.08113,0.32255 -1.78125,0.96875 -0.53865,1.1e-4 -0.86108,-0.32233 -0.96875,-0.96875 0.91556,1.1e-4 1.37495,-0.31369 1.375,-0.90625 z m 4.5,0 0.40625,0 c -6e-5,0.59256 -0.2826,0.90636 -0.875,0.90625 l -0.40625,0 c -6e-5,-0.48462 0.28249,-0.79842 0.875,-0.90625 z m 122,0.75 0,0.3125 c -0.64635,0.96958 -0.96878,1.71151 -0.96875,2.25 l -0.3125,0 0,-0.3125 c 0.21541,-1.50796 0.6349,-2.24989 1.28125,-2.25 z m -8.0625,4.84375 c -2.58528,6.35552 -3.87502,9.67694 -3.875,10 l -0.65625,-0.3125 c 2.1005,-5.92444 3.61561,-9.1488 4.53125,-9.6875 z m 5.15625,0.3125 0.65625,0.3125 -0.34375,0.65625 -0.625,-0.3125 0.3125,-0.65625 z m -53.71875,5.8125 0,3.15625 -0.5,0 c -1.2e-4,-0.43078 -0.28267,-1.02712 -0.875,-1.78125 l 0,-0.875 c 0.32303,10e-5 0.78242,-0.17674 1.375,-0.5 z M 334,925.75 c -0.53863,1.07729 -0.98937,1.59385 -1.3125,1.59375 l 0,0.65625 0.65625,0 c -3e-5,-0.32306 0.22534,-0.74256 0.65625,-1.28125 l 0,-0.96875 z m -11.96875,3.875 c 0.43086,10e-5 0.65623,0.19422 0.65625,0.625 l 0,0.34375 c -2e-5,0.43097 -0.22539,0.62509 -0.65625,0.625 l 0,-1.59375 z m 10.03125,0.625 c -0.48476,9e-5 -0.93551,0.9674 -1.3125,2.90625 l 0,0.34375 0.34375,0 0.96875,-3.25 z m -11,2.59375 0.65625,0 0,0.96875 -0.65625,0 0,-0.96875 z m -93.78125,0.25 0.40625,0 0,0.46875 c -0.59253,9e-5 -0.90632,0.31389 -0.90625,0.90625 -0.48481,9e-5 -0.76735,-0.31371 -0.875,-0.90625 0.32309,9e-5 0.78247,-0.1455 1.375,-0.46875 z m 92.8125,1.375 0.96875,0 0,0.3125 -0.3125,0.65625 c -0.37703,9e-5 -0.60241,-0.22528 -0.65625,-0.65625 l 0,-0.3125 z M 272.75,934.875 l 1.78125,0.46875 -0.40625,0.90625 c -0.59257,-0.26921 -1.05196,-0.40616 -1.375,-0.40625 l 0,-0.96875 z m 52.84375,1.1875 0,0.96875 c 0.43085,9e-5 0.65623,-0.19404 0.65625,-0.625 l 0,-0.34375 -0.65625,0 z m -0.3125,1.3125 c -2e-5,0.32324 -0.2254,0.74274 -0.65625,1.28125 l 0,0.96875 c 0.37699,8e-5 0.69943,-0.64479 0.96875,-1.9375 l 0,-0.3125 -0.3125,0 z m -49.78125,0.25 0.40625,0 0,0.375 c -0.37714,2.1006 -0.97348,3.15633 -1.78125,3.15625 l 0,-2.1875 c 0.91549,9e-5 1.37488,-0.42805 1.375,-1.34375 z m 43.625,1.03125 0.3125,0 -2.90625,8.71875 -0.3125,0 -0.3125,-1.59375 0,-0.34375 c 0.32314,-0.64623 0.64558,-0.96867 0.96875,-0.96875 0.32314,-2.1543 0.8397,-3.5411 1.59375,-4.1875 l -0.3125,-0.65625 c 0.48472,-0.64623 0.80715,-0.96866 0.96875,-0.96875 z m 11,0.3125 c -0.86178,1.88517 -2.05446,5.23784 -3.5625,10.03125 l 0,0.3125 c 0.48471,-0.10764 1.87152,-3.42906 4.1875,-10 l 0,-0.34375 -0.625,0 z m -58.25,1.3125 0.46875,0 c -0.48485,1.23885 -0.94424,1.84383 -1.375,1.84375 l 0,-0.46875 0.90625,-1.375 z m 52.09375,0 0,0.96875 c 0.43085,8e-5 0.65623,-0.22529 0.65625,-0.65625 l 0,-0.3125 -0.65625,0 z m -51.625,3.15625 0.40625,0 c -0.70029,1.8313 -1.29663,2.75008 -1.78125,2.75 l -0.46875,0 0,-0.5 c 0.80778,-1.45413 1.41276,-2.19606 1.84375,-2.25 z M 222.75,943.90625 c 0.59239,8e-5 0.87493,0.31388 0.875,0.90625 l 0,0.46875 -1.78125,0 0.90625,-1.375 z m 4.03125,0 0,1.375 c -0.64638,8e-5 -1.52527,0.45083 -2.65625,1.3125 l 0,-1.3125 c 0.37695,8e-5 1.25583,-0.45931 2.65625,-1.375 z m 42.40625,0 0.90625,0 c -0.59257,0.75411 -0.90636,1.35045 -0.90625,1.78125 l -1.375,0 0,-0.40625 c 0.9155,8e-5 1.37489,-0.45931 1.375,-1.375 z m 53.5,0.25 0,1.28125 0.3125,0 0,-1.28125 -0.3125,0 z m -52.59375,2.4375 0.40625,0 0,0.46875 c -4.30887,5.5476 -9.73311,10.33561 -16.25,14.375 0.91551,6e-5 1.3749,0.3225 1.375,0.96875 l -1.375,0 0,-0.96875 c -0.70027,6e-5 -2.63489,0.77325 -5.8125,2.28125 l -0.5,0 c -9e-5,-0.75397 1.05564,-1.35031 3.15625,-1.78125 10.55635,-5.87062 15.84364,-10.09353 15.84375,-12.625 2.10041,-1.07711 3.15614,-1.96464 3.15625,-2.71875 z m -46.46875,0.46875 0,2.25 c -0.32322,8e-5 -0.78261,0.13703 -1.375,0.40625 -7e-5,-0.26922 -0.13702,-0.40617 -0.40625,-0.40625 0.80783,-1.50799 1.40417,-2.24992 1.78125,-2.25 z m -4.5,0.5 c 1.2387,0.43095 1.84368,0.85045 1.84375,1.28125 l -2.25,-0.40625 0.40625,-0.875 z m -0.40625,2.65625 0.40625,0 0,0.46875 c -0.37708,1.45428 -0.82783,2.18757 -1.3125,2.1875 l 0.90625,1.375 c -0.70024,7e-5 -1.29658,0.17691 -1.78125,0.5 -6e-5,-0.53852 -0.3225,-0.85232 -0.96875,-0.90625 l -0.40625,0 c -0.59251,1.23884 -0.90631,2.01202 -0.90625,2.28125 l -0.46875,0 0,-0.5 c -6e-5,-0.32309 0.14553,-0.78248 0.46875,-1.375 1.18485,-0.59238 1.78119,-1.47127 1.78125,-2.65625 L 217.34375,952 c 0.91555,7e-5 1.37494,-0.59627 1.375,-1.78125 z m 3.53125,0 c -7e-5,0.80797 -2.08027,4.71709 -6.28125,11.71875 l -0.40625,0 0,-0.5 c 3.7701,-6.9478 5.98726,-10.68008 6.6875,-11.21875 z m 93,0.0625 0.3125,0 c -0.86176,2.47761 -1.28126,3.99273 -1.28125,4.53125 l -0.3125,0 -0.34375,-1.9375 c 0.59244,-1.61571 1.14025,-2.48596 1.625,-2.59375 z M 313,954.5 c 0.6463,0.32323 0.96874,0.64566 0.96875,0.96875 l 0,0.65625 -0.34375,0 0,0.96875 c -0.43089,0.53866 -0.62501,1.05522 -0.625,1.59375 l -0.34375,0 -0.3125,-2.25 c 0.21543,7e-5 0.53786,-0.097 0.96875,-0.3125 -10e-6,-0.21537 -0.0971,-0.53781 -0.3125,-0.96875 L 313,954.5 z m -25.0625,1.78125 c 0.53856,7e-5 0.81247,0.23408 0.8125,0.71875 -2.47756,3.71637 -4.12963,6.01331 -4.9375,6.875 -7.10947,8.29441 -11.26125,12.43755 -12.5,12.4375 -2.47755,3.01618 -4.40352,4.66825 -5.75,4.9375 -10e-6,-0.53855 -0.0971,-1.03783 -0.3125,-1.46875 1.13104,-3.87783 5.91905,-9.95558 14.375,-18.25 5.38592,-3.06992 8.15089,-4.81906 8.3125,-5.25 z m 35.40625,0.15625 0,1.28125 0.3125,0 0,-1.28125 -0.3125,0 z M 213.6875,956.5 l 0,0.90625 c -0.59251,7e-5 -0.87506,0.28261 -0.875,0.875 l -0.40625,0 0,-0.40625 c 0.43082,-0.91554 0.85032,-1.37493 1.28125,-1.375 z m 0,1.78125 0.5,0 0,0.5 c -0.32322,0.59252 -0.50006,1.05191 -0.5,1.375 l -1.78125,0 0,-1.375 0.90625,0.46875 0.875,0 0,-0.96875 z m 109,0.75 0.3125,0 0,1.28125 -0.625,0 0.3125,-1.28125 z m -74.75,0.21875 1.875,0 c -9e-5,0.59252 -0.28264,0.90631 -0.875,0.90625 -1.23886,6e-5 -1.87509,0.41956 -1.875,1.28125 l -0.40625,0 -0.96875,-0.40625 -0.40625,0.90625 c -0.53868,6e-5 -0.82123,-0.31373 -0.875,-0.90625 l 0,-0.46875 c 1.13096,6e-5 2.29239,-0.45068 3.53125,-1.3125 z m 74.09375,1.375 0.65625,0 c -0.21546,0.37708 -0.31252,0.82783 -0.3125,1.3125 l -0.34375,0 0,-1.3125 z m -124.96875,0.8125 0.46875,0 c -4e-5,0.32322 -0.14563,0.50006 -0.46875,0.5 -4e-5,0.70024 1.33823,1.29658 4.03125,1.78125 -5e-5,0.59251 -0.28259,0.87506 -0.875,0.875 -4e-5,0.32322 0.14555,0.50006 0.46875,0.5 l 0,0.875 -0.46875,0 0,-0.875 -0.40625,0 c -0.91565,0.48479 -1.37504,0.91293 -1.375,1.34375 l 0.40625,0.90625 c -0.26934,6e-5 -0.40629,0.14565 -0.40625,0.46875 -0.3232,6e-5 -0.50004,-0.14554 -0.5,-0.46875 l -0.875,0.46875 c -2.10056,-2.0466 -3.15629,-3.98986 -3.15625,-5.875 0.70013,6e-5 1.29647,0.14566 1.78125,0.46875 l 1.375,-0.96875 z m 33.75,0 0.5,0 c 0.59238,6e-5 0.87492,0.3225 0.875,0.96875 l 0,0.40625 -0.40625,0 c -0.53867,6e-5 -0.86111,-0.28248 -0.96875,-0.875 l 0,-0.5 z m 12.21875,0 0.46875,0 0,0.5 c -1.23885,6e-5 -1.84384,0.28261 -1.84375,0.875 -0.59254,-0.26924 -1.04329,-0.40619 -1.3125,-0.40625 l 0,-0.46875 2.6875,-0.5 z m 79,0.8125 -0.3125,1.625 -0.65625,-0.34375 c 0.32314,-0.86169 0.64557,-1.28119 0.96875,-1.28125 z M 206.5,966.4375 l 1.375,0 0,0.90625 -0.46875,0 c -0.48479,6e-5 -0.79858,-0.31374 -0.90625,-0.90625 z m -0.875,0.90625 0.46875,0 L 207,967.8125 c -0.91566,0.70023 -1.37505,1.29657 -1.375,1.78125 l -0.40625,0 0,-0.46875 c 0.26925,-0.53854 0.4062,-1.13488 0.40625,-1.78125 z m 103.8125,0.71875 c 0.43087,0.21549 0.7533,0.34381 0.96875,0.34375 -10e-6,0.10778 -0.41951,1.39752 -1.28125,3.875 l -0.65625,0 c 0.21543,-1.56187 0.53787,-2.97993 0.96875,-4.21875 z m -105.59375,0.15625 c -5e-5,0.70023 0.1369,1.29657 0.40625,1.78125 l 0,0.96875 -0.40625,0 0,-1.375 -0.5,0 -0.875,0.40625 0,-0.40625 c 0.48469,-0.91556 0.94408,-1.37494 1.375,-1.375 z M 327.53125,970 c -0.4309,0.0539 -0.65627,0.27929 -0.65625,0.65625 l 1.3125,0 0,-0.65625 -0.65625,0 z m -120.125,0.96875 0.46875,0 c -1.52014,1.7676 -1.97147,2.04886 -2.65625,2.65625 0.0142,-0.90598 0.74762,-1.80297 2.1875,-2.65625 z m -4.0625,0.90625 0,1.78125 1.875,0 c -0.35192,0.31087 -1.24692,1.37502 -1.375,1.375 l -2.75,-2.28125 0,-0.46875 2.25,-0.40625 z m 118.375,1.375 0,0.625 1.9375,0.34375 0,-0.65625 -1.625,-0.3125 -0.3125,0 z M 193.5,974.125 l 0.40625,0 c -4e-5,1.29268 -1.93465,2.94475 -5.8125,4.9375 l -0.5,0 0,-0.5 c 2.80066,-1.72346 4.77516,-3.19868 5.90625,-4.4375 z m 112.6875,9.125 0,0.65625 c 0,0.43092 -0.19413,0.65629 -0.625,0.65625 l 0,-0.65625 c 0,-0.37698 0.19412,-0.60235 0.625,-0.65625 z m 9.375,1.625 0,1.28125 0.34375,0 0,-1.28125 -0.34375,0 z m -129.34375,1.375 c -0.43091,4e-5 -0.8504,0.59638 -1.28125,1.78125 l 0.875,0.46875 0.90625,0 c -3e-5,-0.64628 0.13692,-1.24262 0.40625,-1.78125 L 186.21875,986.25 z m 10.4375,0 c -0.53864,4e-5 -0.86107,0.28258 -0.96875,0.875 l 1.375,0 0,-0.875 -0.40625,0 z m 100,0.3125 0,0.8125 c -1.07723,4e-5 -1.95611,0.49932 -2.65625,1.46875 l 0,-1.15625 c -4e-5,-0.4847 0.87885,-0.85566 2.65625,-1.125 z M 194.375,988.03125 c -0.53863,4e-5 -0.82118,0.32247 -0.875,0.96875 l 0,0.40625 c 0.86171,-0.43084 1.28121,-0.89023 1.28125,-1.375 l -0.40625,0 z m -13.5625,2.25 c -0.48476,3e-5 -0.76731,0.32247 -0.875,0.96875 l 0.46875,0.90625 c 0.59243,3e-5 0.90622,-0.31376 0.90625,-0.90625 l 0.875,0.40625 0.5,0 0,-0.40625 c -3e-5,-0.53856 -0.32246,-0.861 -0.96875,-0.96875 l -0.90625,0 z m -3.5625,2.75 c -0.53862,3e-5 -0.82116,0.28258 -0.875,0.875 l 0,0.5 2.1875,-0.5 0,-0.875 -1.3125,0 z m 115.625,0 0.8125,0.40625 c -0.0539,0.32319 -0.69877,0.79122 -1.9375,1.4375 l -0.75,0 0,-0.3125 c 0.10769,-0.53856 0.74392,-1.04648 1.875,-1.53125 z m -107.9375,0.40625 1.28125,0 -0.40625,0.96875 c -0.53862,3e-5 -0.82117,-0.32241 -0.875,-0.96875 z m 110.59375,0.71875 c -0.75407,0.37705 -1.12504,0.74801 -1.125,1.125 l 0,0.40625 0.40625,0 1.125,-0.8125 -0.40625,-0.71875 z M 172.75,995.6875 c -0.48475,3e-5 -0.79855,0.31382 -0.90625,0.90625 -2e-5,0.64634 0.31378,0.96878 0.90625,0.96875 l 0.46875,0 c -2e-5,-0.32313 0.13693,-0.78252 0.40625,-1.375 l 0,-0.5 -0.875,0 z m 7.1875,1.375 1.375,0 0,0.5 c -0.32318,3e-5 -0.78257,0.13698 -1.375,0.40625 l 0,-0.90625 z m 109.9375,0.5 1.53125,0 0,0.40625 c -0.59249,3e-5 -1.74528,0.60501 -3.46875,1.84375 l 0,-0.3125 c 0.96944,-1.2926 1.61431,-1.93747 1.9375,-1.9375 z m -3.0625,2.25 0.40625,0 0,1.125 c -0.26933,0 -0.64029,0.137 -1.125,0.4063 l 0,-0.7188 c -3e-5,-0.4309 0.23399,-0.70476 0.71875,-0.8125 z m 24.5625,0.9063 -0.3125,1.9374 0,0.3126 0.3125,0 0.65625,-2.25 -0.65625,0 z m -26.40625,0.2187 c -3e-5,0.2693 0.097,0.4063 0.3125,0.4063 -0.37704,0.754 -0.74801,1.125 -1.125,1.125 l -1.15625,0 0,-0.3126 c -2e-5,-0.4847 0.6761,-0.8955 1.96875,-1.2187 z m 26.09375,3 c -0.43088,0 -0.75332,0.742 -0.96875,2.25 l 0.625,0 0.34375,-2.25 z m -49.125,2.1875 1.375,0 0,0.875 c -0.59256,-0.3231 -1.05195,-0.4687 -1.375,-0.4688 l 0,-0.4062 z m 47.8125,1.0312 -0.3125,1.625 c 0.43087,10e-5 0.65624,-0.2253 0.65625,-0.6562 l 0,-0.9688 -0.34375,0 z m -54.125,0.25 3.15625,0 0,0.5 -3.15625,0 0,-0.5 z m -3.5625,4.125 0,0.875 1.78125,0 0,0.4063 c -1.18501,0 -1.78135,0.3138 -1.78125,0.9063 -1.50816,0 -2.25009,-0.5964 -2.25,-1.7813 l -0.875,0 c -1.7236,0 -4.60824,0.5964 -8.59375,1.7813 l 0,0.9687 c 0.10763,0 0.70397,0.137 1.78125,0.4063 l -0.46875,0.875 0,0.5 2.25,-0.5 0,0.9062 -4.53125,0.4688 0,-0.4688 0.5,-0.9062 -0.875,-0.4063 -0.90625,0 c -8e-5,1.1849 -0.45947,1.7813 -1.375,1.7813 l 0,0.9062 0.90625,0 0,0.4688 c -1.18499,0 -2.24072,0.3138 -3.15625,0.9062 l -0.90625,0 0,-0.5 c 0.91553,0 1.37492,-0.2825 1.375,-0.875 l 0,-0.4062 -0.46875,0 c -1.50814,0 -2.41828,0.4195 -2.6875,1.2812 l 0,0.5 1.3125,0 -0.90625,1.375 0,0.375 c 0.32308,0 0.78247,0.1768 1.375,0.5 -8e-5,-0.5386 1.23249,-1.2805 3.65625,-2.25 l 4.03125,0.375 3.5625,-2.1562 c -9e-5,0.2693 0.4593,0.5518 1.375,0.875 2.42358,0 3.62491,-0.605 3.625,-1.8438 l 1.28125,0 c 2.58516,0 6.35732,-0.1369 11.3125,-0.4062 l 0,-0.9063 c -0.32326,0 -0.78265,-0.1456 -1.375,-0.4687 -1.02343,0.3231 -1.61978,0.4687 -1.78125,0.4687 -3.01623,-0.5924 -4.5001,-1.9307 -4.5,-4.0313 l -2.6875,0 z m -13.96875,2.1876 c -0.53868,0 -0.82122,0.3224 -0.875,0.9687 l 0,0.4063 1.28125,0 0,-1.375 -0.40625,0 z m 6.3125,0 1.28125,0 c -9e-5,0.3231 -0.13704,0.4687 -0.40625,0.4687 l 0.40625,0.9063 -2.1875,-0.4063 c -9e-5,-0.5386 0.31371,-0.861 0.90625,-0.9687 z m 4.90625,0.4687 0.90625,0 c -9e-5,0.3232 0.1455,0.7826 0.46875,1.375 l -3.625,0 0,-0.4687 c 0.75394,0 1.49587,-0.3138 2.25,-0.9063 z m -12.59375,0.9063 c -0.91569,0 -1.97142,0.2825 -3.15625,0.875 l 0.40625,0.9062 c 1.83114,-0.2693 2.74992,-0.72 2.75,-1.3125 l 0,-0.4687 z m 27.46875,0.4687 0,1.3125 1.375,0 0.90625,-0.4062 c -1.1e-4,-0.5386 -0.31391,-0.8524 -0.90625,-0.9063 l -1.375,0 z m 17.625,3.5625 1.28125,0 0,0.875 c -0.53872,-0.2693 -0.95822,-0.375 -1.28125,-0.375 l 0,-0.5 z m -46.46875,1.875 0,0.875 1.375,0 0,-0.875 -1.375,0 z m -18.40625,3.5312 c -1.72356,1.5081 -3.41552,2.2813 -5.03125,2.2813 l 0,0.4687 c -6e-5,0.5925 0.31374,0.9063 0.90625,0.9063 l 1.375,0 c 1.18485,-1.1311 2.38617,-1.9042 3.625,-2.2813 l -0.875,-1.375 z m 2.1875,3.1563 0.46875,0 c -6e-5,0.5925 -0.28261,0.9062 -0.875,0.9063 l -0.5,0 c -6e-5,-0.4848 0.31373,-0.7986 0.90625,-0.9063 z m -10.34375,5 0,1.3125 c 0.3231,0 0.78249,0.1456 1.375,0.4688 -5e-5,-0.3232 0.1369,-0.4688 0.40625,-0.4688 -0.43093,-0.8618 -0.88168,-1.3125 -1.3125,-1.3125 l -0.46875,0 z M 207,1034.9688 c -0.53865,-1e-4 -0.85244,0.2825 -0.90625,0.875 l 0,0.4062 0.90625,0 c 0.5924,0 0.87495,-0.2826 0.875,-0.875 l 0,-0.4062 -0.875,0 z m 87.8125,1.2812 -0.90625,0.5 0.5,1.7812 0.875,0 0,-1.375 -0.46875,-0.9062 z m -6.71875,5.4062 0.40625,0 0,0.5 -0.40625,0.875 -0.875,0 0,-0.4687 c 0.59232,0 0.87487,-0.3138 0.875,-0.9063 z m -17.59375,9.9376 0.875,0 0,0.4062 c -0.64643,0 -1.24277,0.1768 -1.78125,0.5 l -0.40625,0 0,-0.5 c 0.26918,0 0.71993,-0.137 1.3125,-0.4062 z m -2.28125,0.4062 0.5,0.9688 c -2.26221,0.5924 -3.60048,0.9062 -4.03125,0.9062 l -0.90625,0 0,-0.5 4.4375,-1.375 z m 2.28125,0.9688 0.875,0 0,0.9062 -1.78125,0 c -1.1e-4,-0.5386 0.31368,-0.8524 0.90625,-0.9062 z m -16.65625,0.9062 c 0.80779,0 1.71793,0.2825 2.6875,0.875 l 0.875,-0.4688 0.46875,0 0,0.4688 -0.875,0 0,0.5 0.40625,0.875 c -0.2694,0 -0.40635,0.1369 -0.40625,0.4062 l -0.875,-0.4062 c -10e-5,-0.3232 0.13685,-0.4688 0.40625,-0.4688 l -2.6875,-1.7812 z m 4.9375,0.4062 1.84375,0 0,0.4688 -1.84375,0 0,-0.4688 z"
       transform="scale(1.1490025,0.87032009)" />
    <text
       xml:space="preserve"
       style="font-size:165.45635985999999207px;font-style:normal;font-variant:normal;font-weight:normal;font-stretch:normal;line-height:125%;letter-spacing:0px;word-spacing:0px;fill:#ffffff;fill-opacity:1;stroke:none;font-family:Art Brewery;-inkscape-font-specification:Art Brewery"
       x="155.61063"
       y="1024.6206"
       id="text3036"
       sodipodi:linespacing="125%"
       transform="scale(1.1490025,0.87032009)"><tspan
         sodipodi:role="line"
         id="tspan3038"
         x="155.61063"
         y="1024.6206">Ref</tspan></text>
    <path
       sodipodi:type="arc"
       style="fill:url(#linearGradient3838);fill-opacity:1;fill-rule:evenodd;stroke:none"
       id="path3054"
       sodipodi:cx="351.53308"
       sodipodi:cy="120.69282"
       sodipodi:rx="194.95944"
       sodipodi:ry="85.357887"
       d="m 546.49252,120.69282 a 194.95944,85.357887 0 1 1 -389.91888,0 194.95944,85.357887 0 1 1 389.91888,0 z"
       transform="translate(0,652.36218)" />
  </g>
</svg>
